# Tiled2Unity generated file. Do not modify by hand.
# Wavefront file for 'map1_mesh_0010.obj'

# Vertices (Count = 392)
v -248 -186 0
v -279 -186 0
v -279 -155 0
v -248 -155 0
v -217 -186 0
v -248 -186 0
v -248 -155 0
v -217 -155 0
v -186 -186 0
v -217 -186 0
v -217 -155 0
v -186 -155 0
v -155 -186 0
v -186 -186 0
v -186 -155 0
v -155 -155 0
v -248 -217 0
v -279 -217 0
v -279 -186 0
v -248 -186 0
v -217 -217 0
v -248 -217 0
v -248 -186 0
v -217 -186 0
v -186 -217 0
v -217 -217 0
v -217 -186 0
v -186 -186 0
v -155 -217 0
v -186 -217 0
v -186 -186 0
v -155 -186 0
v -124 -217 0
v -155 -217 0
v -155 -186 0
v -124 -186 0
v -93 -217 0
v -124 -217 0
v -124 -186 0
v -93 -186 0
v -62 -217 0
v -93 -217 0
v -93 -186 0
v -62 -186 0
v -31 -217 0
v -62 -217 0
v -62 -186 0
v -31 -186 0
v 0 -217 0
v -31 -217 0
v -31 -186 0
v 0 -186 0
v -310 -248 0
v -341 -248 0
v -341 -217 0
v -310 -217 0
v -279 -248 0
v -310 -248 0
v -310 -217 0
v -279 -217 0
v -248 -248 0
v -279 -248 0
v -279 -217 0
v -248 -217 0
v -217 -248 0
v -248 -248 0
v -248 -217 0
v -217 -217 0
v -186 -248 0
v -217 -248 0
v -217 -217 0
v -186 -217 0
v -155 -248 0
v -186 -248 0
v -186 -217 0
v -155 -217 0
v -124 -248 0
v -155 -248 0
v -155 -217 0
v -124 -217 0
v -93 -248 0
v -124 -248 0
v -124 -217 0
v -93 -217 0
v -62 -248 0
v -93 -248 0
v -93 -217 0
v -62 -217 0
v -31 -248 0
v -62 -248 0
v -62 -217 0
v -31 -217 0
v 0 -248 0
v -31 -248 0
v -31 -217 0
v 0 -217 0
v -341 -279 0
v -372 -279 0
v -372 -248 0
v -341 -248 0
v -310 -279 0
v -341 -279 0
v -341 -248 0
v -310 -248 0
v -279 -279 0
v -310 -279 0
v -310 -248 0
v -279 -248 0
v -248 -279 0
v -279 -279 0
v -279 -248 0
v -248 -248 0
v -217 -279 0
v -248 -279 0
v -248 -248 0
v -217 -248 0
v -186 -279 0
v -217 -279 0
v -217 -248 0
v -186 -248 0
v -155 -279 0
v -186 -279 0
v -186 -248 0
v -155 -248 0
v -124 -279 0
v -155 -279 0
v -155 -248 0
v -124 -248 0
v -93 -279 0
v -124 -279 0
v -124 -248 0
v -93 -248 0
v -62 -279 0
v -93 -279 0
v -93 -248 0
v -62 -248 0
v -31 -279 0
v -62 -279 0
v -62 -248 0
v -31 -248 0
v 0 -279 0
v -31 -279 0
v -31 -248 0
v 0 -248 0
v -341 -310 0
v -372 -310 0
v -372 -279 0
v -341 -279 0
v -310 -310 0
v -341 -310 0
v -341 -279 0
v -310 -279 0
v -279 -310 0
v -310 -310 0
v -310 -279 0
v -279 -279 0
v -248 -310 0
v -279 -310 0
v -279 -279 0
v -248 -279 0
v -217 -310 0
v -248 -310 0
v -248 -279 0
v -217 -279 0
v -186 -310 0
v -217 -310 0
v -217 -279 0
v -186 -279 0
v -155 -310 0
v -186 -310 0
v -186 -279 0
v -155 -279 0
v -124 -310 0
v -155 -310 0
v -155 -279 0
v -124 -279 0
v -93 -310 0
v -124 -310 0
v -124 -279 0
v -93 -279 0
v -62 -310 0
v -93 -310 0
v -93 -279 0
v -62 -279 0
v -31 -310 0
v -62 -310 0
v -62 -279 0
v -31 -279 0
v 0 -310 0
v -31 -310 0
v -31 -279 0
v 0 -279 0
v -713 -341 0
v -744 -341 0
v -744 -310 0
v -713 -310 0
v -682 -341 0
v -713 -341 0
v -713 -310 0
v -682 -310 0
v -651 -341 0
v -682 -341 0
v -682 -310 0
v -651 -310 0
v -620 -341 0
v -651 -341 0
v -651 -310 0
v -620 -310 0
v -589 -341 0
v -620 -341 0
v -620 -310 0
v -589 -310 0
v -558 -341 0
v -589 -341 0
v -589 -310 0
v -558 -310 0
v -527 -341 0
v -558 -341 0
v -558 -310 0
v -527 -310 0
v -341 -341 0
v -372 -341 0
v -372 -310 0
v -341 -310 0
v -310 -341 0
v -341 -341 0
v -341 -310 0
v -310 -310 0
v -279 -341 0
v -310 -341 0
v -310 -310 0
v -279 -310 0
v -248 -341 0
v -279 -341 0
v -279 -310 0
v -248 -310 0
v -217 -341 0
v -248 -341 0
v -248 -310 0
v -217 -310 0
v -186 -341 0
v -217 -341 0
v -217 -310 0
v -186 -310 0
v -155 -341 0
v -186 -341 0
v -186 -310 0
v -155 -310 0
v -124 -341 0
v -155 -341 0
v -155 -310 0
v -124 -310 0
v -93 -341 0
v -124 -341 0
v -124 -310 0
v -93 -310 0
v -62 -341 0
v -93 -341 0
v -93 -310 0
v -62 -310 0
v -31 -341 0
v -62 -341 0
v -62 -310 0
v -31 -310 0
v 0 -341 0
v -31 -341 0
v -31 -310 0
v 0 -310 0
v -713 -372 0
v -744 -372 0
v -744 -341 0
v -713 -341 0
v -682 -372 0
v -713 -372 0
v -713 -341 0
v -682 -341 0
v -651 -372 0
v -682 -372 0
v -682 -341 0
v -651 -341 0
v -620 -372 0
v -651 -372 0
v -651 -341 0
v -620 -341 0
v -589 -372 0
v -620 -372 0
v -620 -341 0
v -589 -341 0
v -558 -372 0
v -589 -372 0
v -589 -341 0
v -558 -341 0
v -527 -372 0
v -558 -372 0
v -558 -341 0
v -527 -341 0
v -341 -372 0
v -372 -372 0
v -372 -341 0
v -341 -341 0
v -310 -372 0
v -341 -372 0
v -341 -341 0
v -310 -341 0
v -279 -372 0
v -310 -372 0
v -310 -341 0
v -279 -341 0
v -248 -372 0
v -279 -372 0
v -279 -341 0
v -248 -341 0
v -217 -372 0
v -248 -372 0
v -248 -341 0
v -217 -341 0
v -186 -372 0
v -217 -372 0
v -217 -341 0
v -186 -341 0
v -155 -372 0
v -186 -372 0
v -186 -341 0
v -155 -341 0
v -124 -372 0
v -155 -372 0
v -155 -341 0
v -124 -341 0
v -93 -372 0
v -124 -372 0
v -124 -341 0
v -93 -341 0
v -62 -372 0
v -93 -372 0
v -93 -341 0
v -62 -341 0
v -31 -372 0
v -62 -372 0
v -62 -341 0
v -31 -341 0
v 0 -372 0
v -31 -372 0
v -31 -341 0
v 0 -341 0
v -341 -403 0
v -372 -403 0
v -372 -372 0
v -341 -372 0
v -310 -403 0
v -341 -403 0
v -341 -372 0
v -310 -372 0
v -279 -403 0
v -310 -403 0
v -310 -372 0
v -279 -372 0
v -248 -403 0
v -279 -403 0
v -279 -372 0
v -248 -372 0
v -217 -403 0
v -248 -403 0
v -248 -372 0
v -217 -372 0
v -186 -403 0
v -217 -403 0
v -217 -372 0
v -186 -372 0
v -155 -403 0
v -186 -403 0
v -186 -372 0
v -155 -372 0
v -124 -403 0
v -155 -403 0
v -155 -372 0
v -124 -372 0
v -93 -403 0
v -124 -403 0
v -124 -372 0
v -93 -372 0
v -62 -403 0
v -93 -403 0
v -93 -372 0
v -62 -372 0
v -31 -403 0
v -62 -403 0
v -62 -372 0
v -31 -372 0
v 0 -403 0
v -31 -403 0
v -31 -372 0
v 0 -372 0

# Texture cooridinates (Count = 140)
vt 0.370607 0.2003035
vt 0.4201278 0.2003035
vt 0.4201278 0.2473444
vt 0.370607 0.2473444
vt 0.4760383 0.2503794
vt 0.5255591 0.2503794
vt 0.5255591 0.2974203
vt 0.4760383 0.2974203
vt 0.370607 0.2503794
vt 0.4201278 0.2503794
vt 0.4201278 0.2974203
vt 0.370607 0.2974203
vt 0.5814697 0.2503794
vt 0.6309904 0.2503794
vt 0.6309904 0.2974203
vt 0.5814697 0.2974203
vt 0.4760383 0.2003035
vt 0.5255591 0.2003035
vt 0.5255591 0.2473444
vt 0.4760383 0.2473444
vt 0.528754 0.2003035
vt 0.5782748 0.2003035
vt 0.5782748 0.2473444
vt 0.528754 0.2473444
vt 0.4233227 0.2003035
vt 0.4728434 0.2003035
vt 0.4728434 0.2473444
vt 0.4233227 0.2473444
vt 0.0543131 0.2003035
vt 0.1038339 0.2003035
vt 0.1038339 0.2473444
vt 0.0543131 0.2473444
vt 0.528754 0.3505311
vt 0.5782748 0.3505311
vt 0.5782748 0.3975721
vt 0.528754 0.3975721
vt 0.6341853 0.2503794
vt 0.683706 0.2503794
vt 0.683706 0.2974203
vt 0.6341853 0.2974203
vt 0.6341853 0.1001517
vt 0.683706 0.1001517
vt 0.683706 0.1471927
vt 0.6341853 0.1471927
vt 0.2651757 0.400607
vt 0.3146965 0.400607
vt 0.3146965 0.4476479
vt 0.2651757 0.4476479
vt 0.1597444 0.3505311
vt 0.2092652 0.3505311
vt 0.2092652 0.3975721
vt 0.1597444 0.3975721
vt 0.686901 0.400607
vt 0.7364217 0.400607
vt 0.7364217 0.4476479
vt 0.686901 0.4476479
vt 0.5814697 0.1001517
vt 0.6309904 0.1001517
vt 0.6309904 0.1471927
vt 0.5814697 0.1471927
vt 0.5814697 0.2003035
vt 0.6309904 0.2003035
vt 0.6309904 0.2473444
vt 0.5814697 0.2473444
vt 0.2124601 0.400607
vt 0.2619808 0.400607
vt 0.2619808 0.4476479
vt 0.2124601 0.4476479
vt 0.1070288 0.3505311
vt 0.1565495 0.3505311
vt 0.1565495 0.3975721
vt 0.1070288 0.3975721
vt 0.2124601 0.3505311
vt 0.2619808 0.3505311
vt 0.2619808 0.3975721
vt 0.2124601 0.3975721
vt 0.5814697 0.1502276
vt 0.6309904 0.1502276
vt 0.6309904 0.1972686
vt 0.5814697 0.1972686
vt 0.4760383 0.1001517
vt 0.5255591 0.1001517
vt 0.5255591 0.1471927
vt 0.4760383 0.1471927
vt 0.370607 0.3505311
vt 0.4201278 0.3505311
vt 0.4201278 0.3975721
vt 0.370607 0.3975721
vt 0.1597444 0.1001517
vt 0.2092652 0.1001517
vt 0.2092652 0.1471927
vt 0.1597444 0.1471927
vt 0.2651757 0.3004552
vt 0.3146965 0.3004552
vt 0.3146965 0.3474962
vt 0.2651757 0.3474962
vt 0.370607 0.400607
vt 0.4201278 0.400607
vt 0.4201278 0.4476479
vt 0.370607 0.4476479
vt 0.001597444 0.3505311
vt 0.05111821 0.3505311
vt 0.05111821 0.3975721
vt 0.001597444 0.3975721
vt 0.1070288 0.400607
vt 0.1565495 0.400607
vt 0.1565495 0.4476479
vt 0.1070288 0.4476479
vt 0.5814697 0.400607
vt 0.6309904 0.400607
vt 0.6309904 0.4476479
vt 0.5814697 0.4476479
vt 0.8977636 0.4506829
vt 0.9472843 0.4506829
vt 0.9472843 0.4977238
vt 0.8977636 0.4977238
vt 0.1597444 0.400607
vt 0.2092652 0.400607
vt 0.2092652 0.4476479
vt 0.1597444 0.4476479
vt 0.0543131 0.400607
vt 0.1038339 0.400607
vt 0.1038339 0.4476479
vt 0.0543131 0.4476479
vt 0.001597444 0.400607
vt 0.05111821 0.400607
vt 0.05111821 0.4476479
vt 0.001597444 0.4476479
vt 0.2124601 0.2503794
vt 0.2619808 0.2503794
vt 0.2619808 0.2974203
vt 0.2124601 0.2974203
vt 0.4233227 0.2503794
vt 0.4728434 0.2503794
vt 0.4728434 0.2974203
vt 0.4233227 0.2974203
vt 0.528754 0.2503794
vt 0.5782748 0.2503794
vt 0.5782748 0.2974203
vt 0.528754 0.2974203

# Normal
vn 0 0 -1

# Mesh description
g map1_mesh_0010

# Faces
f 1/1/1 2/2/1 3/3/1 4/4/1
f 5/5/1 6/6/1 7/7/1 8/8/1
f 9/5/1 10/6/1 11/7/1 12/8/1
f 13/5/1 14/6/1 15/7/1 16/8/1
f 17/9/1 18/10/1 19/11/1 20/12/1
f 21/13/1 22/14/1 23/15/1 24/16/1
f 25/17/1 26/18/1 27/19/1 28/20/1
f 29/21/1 30/22/1 31/23/1 32/24/1
f 33/21/1 34/22/1 35/23/1 36/24/1
f 37/21/1 38/22/1 39/23/1 40/24/1
f 41/25/1 42/26/1 43/27/1 44/28/1
f 45/29/1 46/30/1 47/31/1 48/32/1
f 49/33/1 50/34/1 51/35/1 52/36/1
f 53/37/1 54/38/1 55/39/1 56/40/1
f 57/17/1 58/18/1 59/19/1 60/20/1
f 61/21/1 62/22/1 63/23/1 64/24/1
f 65/41/1 66/42/1 67/43/1 68/44/1
f 69/45/1 70/46/1 71/47/1 72/48/1
f 73/49/1 74/50/1 75/51/1 76/52/1
f 77/49/1 78/50/1 79/51/1 80/52/1
f 81/49/1 82/50/1 83/51/1 84/52/1
f 85/49/1 86/50/1 87/51/1 88/52/1
f 89/53/1 90/54/1 91/55/1 92/56/1
f 93/29/1 94/30/1 95/31/1 96/32/1
f 97/57/1 98/58/1 99/59/1 100/60/1
f 101/61/1 102/62/1 103/63/1 104/64/1
f 105/65/1 106/66/1 107/67/1 108/68/1
f 109/49/1 110/50/1 111/51/1 112/52/1
f 113/69/1 114/70/1 115/71/1 116/72/1
f 117/73/1 118/74/1 119/75/1 120/76/1
f 121/77/1 122/78/1 123/79/1 124/80/1
f 125/81/1 126/82/1 127/83/1 128/84/1
f 129/81/1 130/82/1 131/83/1 132/84/1
f 133/81/1 134/82/1 135/83/1 136/84/1
f 137/85/1 138/86/1 139/87/1 140/88/1
f 141/49/1 142/50/1 143/51/1 144/52/1
f 145/57/1 146/58/1 147/59/1 148/60/1
f 149/65/1 150/66/1 151/67/1 152/68/1
f 153/73/1 154/74/1 155/75/1 156/76/1
f 157/77/1 158/78/1 159/79/1 160/80/1
f 161/89/1 162/90/1 163/91/1 164/92/1
f 165/89/1 166/90/1 167/91/1 168/92/1
f 169/89/1 170/90/1 171/91/1 172/92/1
f 173/81/1 174/82/1 175/83/1 176/84/1
f 177/81/1 178/82/1 179/83/1 180/84/1
f 181/81/1 182/82/1 183/83/1 184/84/1
f 185/81/1 186/82/1 187/83/1 188/84/1
f 189/81/1 190/82/1 191/83/1 192/84/1
f 193/93/1 194/94/1 195/95/1 196/96/1
f 197/93/1 198/94/1 199/95/1 200/96/1
f 201/93/1 202/94/1 203/95/1 204/96/1
f 205/93/1 206/94/1 207/95/1 208/96/1
f 209/93/1 210/94/1 211/95/1 212/96/1
f 213/93/1 214/94/1 215/95/1 216/96/1
f 217/93/1 218/94/1 219/95/1 220/96/1
f 221/57/1 222/58/1 223/59/1 224/60/1
f 225/97/1 226/98/1 227/99/1 228/100/1
f 229/81/1 230/82/1 231/83/1 232/84/1
f 233/81/1 234/82/1 235/83/1 236/84/1
f 237/89/1 238/90/1 239/91/1 240/92/1
f 241/89/1 242/90/1 243/91/1 244/92/1
f 245/77/1 246/78/1 247/79/1 248/80/1
f 249/101/1 250/102/1 251/103/1 252/104/1
f 253/105/1 254/106/1 255/107/1 256/108/1
f 257/105/1 258/106/1 259/107/1 260/108/1
f 261/109/1 262/110/1 263/111/1 264/112/1
f 265/81/1 266/82/1 267/83/1 268/84/1
f 269/93/1 270/94/1 271/95/1 272/96/1
f 273/93/1 274/94/1 275/95/1 276/96/1
f 277/93/1 278/94/1 279/95/1 280/96/1
f 281/93/1 282/94/1 283/95/1 284/96/1
f 285/93/1 286/94/1 287/95/1 288/96/1
f 289/93/1 290/94/1 291/95/1 292/96/1
f 293/93/1 294/94/1 295/95/1 296/96/1
f 297/57/1 298/58/1 299/59/1 300/60/1
f 301/113/1 302/114/1 303/115/1 304/116/1
f 305/117/1 306/118/1 307/119/1 308/120/1
f 309/105/1 310/106/1 311/107/1 312/108/1
f 313/121/1 314/122/1 315/123/1 316/124/1
f 317/117/1 318/118/1 319/119/1 320/120/1
f 321/121/1 322/122/1 323/123/1 324/124/1
f 325/125/1 326/126/1 327/127/1 328/128/1
f 329/57/1 330/58/1 331/59/1 332/60/1
f 333/57/1 334/58/1 335/59/1 336/60/1
f 337/113/1 338/114/1 339/115/1 340/116/1
f 341/117/1 342/118/1 343/119/1 344/120/1
f 345/129/1 346/130/1 347/131/1 348/132/1
f 349/5/1 350/6/1 351/7/1 352/8/1
f 353/5/1 354/6/1 355/7/1 356/8/1
f 357/133/1 358/134/1 359/135/1 360/136/1
f 361/137/1 362/138/1 363/139/1 364/140/1
f 365/137/1 366/138/1 367/139/1 368/140/1
f 369/137/1 370/138/1 371/139/1 372/140/1
f 373/137/1 374/138/1 375/139/1 376/140/1
f 377/5/1 378/6/1 379/7/1 380/8/1
f 381/133/1 382/134/1 383/135/1 384/136/1
f 385/133/1 386/134/1 387/135/1 388/136/1
f 389/137/1 390/138/1 391/139/1 392/140/1

