# Tiled2Unity generated file. Do not modify by hand.
# Wavefront file for 'map1_mesh_0011.obj'

# Vertices (Count = 168)
v -620 -248 0
v -651 -248 0
v -651 -217 0
v -620 -217 0
v -589 -248 0
v -620 -248 0
v -620 -217 0
v -589 -217 0
v -558 -248 0
v -589 -248 0
v -589 -217 0
v -558 -217 0
v -682 -279 0
v -713 -279 0
v -713 -248 0
v -682 -248 0
v -651 -279 0
v -682 -279 0
v -682 -248 0
v -651 -248 0
v -620 -279 0
v -651 -279 0
v -651 -248 0
v -620 -248 0
v -589 -279 0
v -620 -279 0
v -620 -248 0
v -589 -248 0
v -713 -310 0
v -744 -310 0
v -744 -279 0
v -713 -279 0
v -682 -310 0
v -713 -310 0
v -713 -279 0
v -682 -279 0
v -651 -310 0
v -682 -310 0
v -682 -279 0
v -651 -279 0
v -620 -310 0
v -651 -310 0
v -651 -279 0
v -620 -279 0
v -589 -310 0
v -620 -310 0
v -620 -279 0
v -589 -279 0
v -961 -341 0
v -992 -341 0
v -992 -310 0
v -961 -310 0
v -713 -341 0
v -744 -341 0
v -744 -310 0
v -713 -310 0
v -682 -341 0
v -713 -341 0
v -713 -310 0
v -682 -310 0
v -651 -341 0
v -682 -341 0
v -682 -310 0
v -651 -310 0
v -620 -341 0
v -651 -341 0
v -651 -310 0
v -620 -310 0
v -589 -341 0
v -620 -341 0
v -620 -310 0
v -589 -310 0
v -961 -372 0
v -992 -372 0
v -992 -341 0
v -961 -341 0
v -713 -372 0
v -744 -372 0
v -744 -341 0
v -713 -341 0
v -682 -372 0
v -713 -372 0
v -713 -341 0
v -682 -341 0
v -651 -372 0
v -682 -372 0
v -682 -341 0
v -651 -341 0
v -620 -372 0
v -651 -372 0
v -651 -341 0
v -620 -341 0
v -589 -372 0
v -620 -372 0
v -620 -341 0
v -589 -341 0
v -961 -403 0
v -992 -403 0
v -992 -372 0
v -961 -372 0
v -930 -403 0
v -961 -403 0
v -961 -372 0
v -930 -372 0
v -899 -403 0
v -930 -403 0
v -930 -372 0
v -899 -372 0
v -868 -403 0
v -899 -403 0
v -899 -372 0
v -868 -372 0
v -837 -403 0
v -868 -403 0
v -868 -372 0
v -837 -372 0
v -806 -403 0
v -837 -403 0
v -837 -372 0
v -806 -372 0
v -775 -403 0
v -806 -403 0
v -806 -372 0
v -775 -372 0
v -744 -403 0
v -775 -403 0
v -775 -372 0
v -744 -372 0
v -713 -403 0
v -744 -403 0
v -744 -372 0
v -713 -372 0
v -682 -403 0
v -713 -403 0
v -713 -372 0
v -682 -372 0
v -651 -403 0
v -682 -403 0
v -682 -372 0
v -651 -372 0
v -620 -403 0
v -651 -403 0
v -651 -372 0
v -620 -372 0
v -589 -403 0
v -620 -403 0
v -620 -372 0
v -589 -372 0
v -713 -434 0
v -744 -434 0
v -744 -403 0
v -713 -403 0
v -682 -434 0
v -713 -434 0
v -713 -403 0
v -682 -403 0
v -651 -434 0
v -682 -434 0
v -682 -403 0
v -651 -403 0
v -620 -434 0
v -651 -434 0
v -651 -403 0
v -620 -403 0
v -589 -434 0
v -620 -434 0
v -620 -403 0
v -589 -403 0

# Texture cooridinates (Count = 52)
vt 0.6341853 0.1001517
vt 0.683706 0.1001517
vt 0.683706 0.1471927
vt 0.6341853 0.1471927
vt 0.2651757 0.2003035
vt 0.3146965 0.2003035
vt 0.3146965 0.2473444
vt 0.2651757 0.2473444
vt 0.4233227 0.3004552
vt 0.4728434 0.3004552
vt 0.4728434 0.3474962
vt 0.4233227 0.3474962
vt 0.2124601 0.2503794
vt 0.2619808 0.2503794
vt 0.2619808 0.2974203
vt 0.2124601 0.2974203
vt 0.1070288 0.3004552
vt 0.1565495 0.3004552
vt 0.1565495 0.3474962
vt 0.1070288 0.3474962
vt 0.6341853 0.3505311
vt 0.683706 0.3505311
vt 0.683706 0.3975721
vt 0.6341853 0.3975721
vt 0.6341853 0.2503794
vt 0.683706 0.2503794
vt 0.683706 0.2974203
vt 0.6341853 0.2974203
vt 0.5814697 0.2003035
vt 0.6309904 0.2003035
vt 0.6309904 0.2473444
vt 0.5814697 0.2473444
vt 0.686901 0.2503794
vt 0.7364217 0.2503794
vt 0.7364217 0.2974203
vt 0.686901 0.2974203
vt 0.528754 0.3505311
vt 0.5782748 0.3505311
vt 0.5782748 0.3975721
vt 0.528754 0.3975721
vt 0.7923323 0.3505311
vt 0.841853 0.3505311
vt 0.841853 0.3975721
vt 0.7923323 0.3975721
vt 0.3178914 0.2003035
vt 0.3674121 0.2003035
vt 0.3674121 0.2473444
vt 0.3178914 0.2473444
vt 0.7396166 0.2003035
vt 0.7891374 0.2003035
vt 0.7891374 0.2473444
vt 0.7396166 0.2473444

# Normal
vn 0 0 -1

# Mesh description
g map1_mesh_0011

# Faces
f 1/1/1 2/2/1 3/3/1 4/4/1
f 5/1/1 6/2/1 7/3/1 8/4/1
f 9/5/1 10/6/1 11/7/1 12/8/1
f 13/1/1 14/2/1 15/3/1 16/4/1
f 17/1/1 18/2/1 19/3/1 20/4/1
f 21/1/1 22/2/1 23/3/1 24/4/1
f 25/1/1 26/2/1 27/3/1 28/4/1
f 29/9/1 30/10/1 31/11/1 32/12/1
f 33/13/1 34/14/1 35/15/1 36/16/1
f 37/1/1 38/2/1 39/3/1 40/4/1
f 41/1/1 42/2/1 43/3/1 44/4/1
f 45/1/1 46/2/1 47/3/1 48/4/1
f 49/17/1 50/18/1 51/19/1 52/20/1
f 53/21/1 54/22/1 55/23/1 56/24/1
f 57/25/1 58/26/1 59/27/1 60/28/1
f 61/29/1 62/30/1 63/31/1 64/32/1
f 65/1/1 66/2/1 67/3/1 68/4/1
f 69/1/1 70/2/1 71/3/1 72/4/1
f 73/17/1 74/18/1 75/19/1 76/20/1
f 77/21/1 78/22/1 79/23/1 80/24/1
f 81/33/1 82/34/1 83/35/1 84/36/1
f 85/1/1 86/2/1 87/3/1 88/4/1
f 89/1/1 90/2/1 91/3/1 92/4/1
f 93/1/1 94/2/1 95/3/1 96/4/1
f 97/37/1 98/38/1 99/39/1 100/40/1
f 101/41/1 102/42/1 103/43/1 104/44/1
f 105/41/1 106/42/1 107/43/1 108/44/1
f 109/41/1 110/42/1 111/43/1 112/44/1
f 113/41/1 114/42/1 115/43/1 116/44/1
f 117/41/1 118/42/1 119/43/1 120/44/1
f 121/41/1 122/42/1 123/43/1 124/44/1
f 125/41/1 126/42/1 127/43/1 128/44/1
f 129/25/1 130/26/1 131/27/1 132/28/1
f 133/29/1 134/30/1 135/31/1 136/32/1
f 137/1/1 138/2/1 139/3/1 140/4/1
f 141/1/1 142/2/1 143/3/1 144/4/1
f 145/45/1 146/46/1 147/47/1 148/48/1
f 149/29/1 150/30/1 151/31/1 152/32/1
f 153/1/1 154/2/1 155/3/1 156/4/1
f 157/1/1 158/2/1 159/3/1 160/4/1
f 161/1/1 162/2/1 163/3/1 164/4/1
f 165/49/1 166/50/1 167/51/1 168/52/1

