# Tiled2Unity generated file. Do not modify by hand.
# Wavefront file for 'map1_mesh_0012.obj'

# Vertices (Count = 852)
v -279 -31 0
v -310 -31 0
v -310 0 0
v -279 0 0
v -248 -31 0
v -279 -31 0
v -279 0 0
v -248 0 0
v -217 -31 0
v -248 -31 0
v -248 0 0
v -217 0 0
v -186 -31 0
v -217 -31 0
v -217 0 0
v -186 0 0
v -155 -31 0
v -186 -31 0
v -186 0 0
v -155 0 0
v -124 -31 0
v -155 -31 0
v -155 0 0
v -124 0 0
v -93 -31 0
v -124 -31 0
v -124 0 0
v -93 0 0
v -62 -31 0
v -93 -31 0
v -93 0 0
v -62 0 0
v -31 -31 0
v -62 -31 0
v -62 0 0
v -31 0 0
v 0 -31 0
v -31 -31 0
v -31 0 0
v 0 0 0
v -310 -62 0
v -341 -62 0
v -341 -31 0
v -310 -31 0
v -279 -62 0
v -310 -62 0
v -310 -31 0
v -279 -31 0
v -248 -62 0
v -279 -62 0
v -279 -31 0
v -248 -31 0
v -217 -62 0
v -248 -62 0
v -248 -31 0
v -217 -31 0
v -186 -62 0
v -217 -62 0
v -217 -31 0
v -186 -31 0
v -155 -62 0
v -186 -62 0
v -186 -31 0
v -155 -31 0
v -124 -62 0
v -155 -62 0
v -155 -31 0
v -124 -31 0
v -93 -62 0
v -124 -62 0
v -124 -31 0
v -93 -31 0
v -62 -62 0
v -93 -62 0
v -93 -31 0
v -62 -31 0
v -31 -62 0
v -62 -62 0
v -62 -31 0
v -31 -31 0
v 0 -62 0
v -31 -62 0
v -31 -31 0
v 0 -31 0
v -434 -93 0
v -465 -93 0
v -465 -62 0
v -434 -62 0
v -403 -93 0
v -434 -93 0
v -434 -62 0
v -403 -62 0
v -186 -93 0
v -217 -93 0
v -217 -62 0
v -186 -62 0
v -155 -93 0
v -186 -93 0
v -186 -62 0
v -155 -62 0
v -124 -93 0
v -155 -93 0
v -155 -62 0
v -124 -62 0
v -93 -93 0
v -124 -93 0
v -124 -62 0
v -93 -62 0
v -62 -93 0
v -93 -93 0
v -93 -62 0
v -62 -62 0
v -31 -93 0
v -62 -93 0
v -62 -62 0
v -31 -62 0
v 0 -93 0
v -31 -93 0
v -31 -62 0
v 0 -62 0
v -682 -124 0
v -713 -124 0
v -713 -93 0
v -682 -93 0
v -651 -124 0
v -682 -124 0
v -682 -93 0
v -651 -93 0
v -620 -124 0
v -651 -124 0
v -651 -93 0
v -620 -93 0
v -589 -124 0
v -620 -124 0
v -620 -93 0
v -589 -93 0
v -558 -124 0
v -589 -124 0
v -589 -93 0
v -558 -93 0
v -527 -124 0
v -558 -124 0
v -558 -93 0
v -527 -93 0
v -496 -124 0
v -527 -124 0
v -527 -93 0
v -496 -93 0
v -465 -124 0
v -496 -124 0
v -496 -93 0
v -465 -93 0
v -186 -124 0
v -217 -124 0
v -217 -93 0
v -186 -93 0
v -155 -124 0
v -186 -124 0
v -186 -93 0
v -155 -93 0
v -124 -124 0
v -155 -124 0
v -155 -93 0
v -124 -93 0
v -93 -124 0
v -124 -124 0
v -124 -93 0
v -93 -93 0
v -62 -124 0
v -93 -124 0
v -93 -93 0
v -62 -93 0
v -31 -124 0
v -62 -124 0
v -62 -93 0
v -31 -93 0
v 0 -124 0
v -31 -124 0
v -31 -93 0
v 0 -93 0
v -186 -155 0
v -217 -155 0
v -217 -124 0
v -186 -124 0
v -155 -155 0
v -186 -155 0
v -186 -124 0
v -155 -124 0
v -124 -155 0
v -155 -155 0
v -155 -124 0
v -124 -124 0
v -93 -155 0
v -124 -155 0
v -124 -124 0
v -93 -124 0
v -62 -155 0
v -93 -155 0
v -93 -124 0
v -62 -124 0
v -31 -155 0
v -62 -155 0
v -62 -124 0
v -31 -124 0
v 0 -155 0
v -31 -155 0
v -31 -124 0
v 0 -124 0
v -186 -186 0
v -217 -186 0
v -217 -155 0
v -186 -155 0
v -155 -186 0
v -186 -186 0
v -186 -155 0
v -155 -155 0
v -124 -186 0
v -155 -186 0
v -155 -155 0
v -124 -155 0
v -93 -186 0
v -124 -186 0
v -124 -155 0
v -93 -155 0
v -62 -186 0
v -93 -186 0
v -93 -155 0
v -62 -155 0
v -31 -186 0
v -62 -186 0
v -62 -155 0
v -31 -155 0
v 0 -186 0
v -31 -186 0
v -31 -155 0
v 0 -155 0
v -217 -217 0
v -248 -217 0
v -248 -186 0
v -217 -186 0
v -186 -217 0
v -217 -217 0
v -217 -186 0
v -186 -186 0
v -155 -217 0
v -186 -217 0
v -186 -186 0
v -155 -186 0
v -124 -217 0
v -155 -217 0
v -155 -186 0
v -124 -186 0
v -93 -217 0
v -124 -217 0
v -124 -186 0
v -93 -186 0
v -62 -217 0
v -93 -217 0
v -93 -186 0
v -62 -186 0
v -31 -217 0
v -62 -217 0
v -62 -186 0
v -31 -186 0
v 0 -217 0
v -31 -217 0
v -31 -186 0
v 0 -186 0
v -186 -248 0
v -217 -248 0
v -217 -217 0
v -186 -217 0
v -155 -248 0
v -186 -248 0
v -186 -217 0
v -155 -217 0
v -124 -248 0
v -155 -248 0
v -155 -217 0
v -124 -217 0
v -93 -248 0
v -124 -248 0
v -124 -217 0
v -93 -217 0
v -62 -248 0
v -93 -248 0
v -93 -217 0
v -62 -217 0
v -31 -248 0
v -62 -248 0
v -62 -217 0
v -31 -217 0
v 0 -248 0
v -31 -248 0
v -31 -217 0
v 0 -217 0
v -186 -279 0
v -217 -279 0
v -217 -248 0
v -186 -248 0
v -155 -279 0
v -186 -279 0
v -186 -248 0
v -155 -248 0
v -124 -279 0
v -155 -279 0
v -155 -248 0
v -124 -248 0
v -93 -279 0
v -124 -279 0
v -124 -248 0
v -93 -248 0
v -62 -279 0
v -93 -279 0
v -93 -248 0
v -62 -248 0
v -31 -279 0
v -62 -279 0
v -62 -248 0
v -31 -248 0
v 0 -279 0
v -31 -279 0
v -31 -248 0
v 0 -248 0
v -930 -310 0
v -961 -310 0
v -961 -279 0
v -930 -279 0
v -899 -310 0
v -930 -310 0
v -930 -279 0
v -899 -279 0
v -868 -310 0
v -899 -310 0
v -899 -279 0
v -868 -279 0
v -837 -310 0
v -868 -310 0
v -868 -279 0
v -837 -279 0
v -806 -310 0
v -837 -310 0
v -837 -279 0
v -806 -279 0
v -775 -310 0
v -806 -310 0
v -806 -279 0
v -775 -279 0
v -744 -310 0
v -775 -310 0
v -775 -279 0
v -744 -279 0
v -713 -310 0
v -744 -310 0
v -744 -279 0
v -713 -279 0
v -186 -310 0
v -217 -310 0
v -217 -279 0
v -186 -279 0
v -155 -310 0
v -186 -310 0
v -186 -279 0
v -155 -279 0
v -124 -310 0
v -155 -310 0
v -155 -279 0
v -124 -279 0
v -93 -310 0
v -124 -310 0
v -124 -279 0
v -93 -279 0
v -62 -310 0
v -93 -310 0
v -93 -279 0
v -62 -279 0
v -31 -310 0
v -62 -310 0
v -62 -279 0
v -31 -279 0
v 0 -310 0
v -31 -310 0
v -31 -279 0
v 0 -279 0
v -961 -341 0
v -992 -341 0
v -992 -310 0
v -961 -310 0
v -930 -341 0
v -961 -341 0
v -961 -310 0
v -930 -310 0
v -899 -341 0
v -930 -341 0
v -930 -310 0
v -899 -310 0
v -868 -341 0
v -899 -341 0
v -899 -310 0
v -868 -310 0
v -837 -341 0
v -868 -341 0
v -868 -310 0
v -837 -310 0
v -806 -341 0
v -837 -341 0
v -837 -310 0
v -806 -310 0
v -775 -341 0
v -806 -341 0
v -806 -310 0
v -775 -310 0
v -744 -341 0
v -775 -341 0
v -775 -310 0
v -744 -310 0
v -713 -341 0
v -744 -341 0
v -744 -310 0
v -713 -310 0
v -186 -341 0
v -217 -341 0
v -217 -310 0
v -186 -310 0
v -155 -341 0
v -186 -341 0
v -186 -310 0
v -155 -310 0
v -124 -341 0
v -155 -341 0
v -155 -310 0
v -124 -310 0
v -93 -341 0
v -124 -341 0
v -124 -310 0
v -93 -310 0
v -62 -341 0
v -93 -341 0
v -93 -310 0
v -62 -310 0
v -31 -341 0
v -62 -341 0
v -62 -310 0
v -31 -310 0
v 0 -341 0
v -31 -341 0
v -31 -310 0
v 0 -310 0
v -961 -372 0
v -992 -372 0
v -992 -341 0
v -961 -341 0
v -930 -372 0
v -961 -372 0
v -961 -341 0
v -930 -341 0
v -899 -372 0
v -930 -372 0
v -930 -341 0
v -899 -341 0
v -868 -372 0
v -899 -372 0
v -899 -341 0
v -868 -341 0
v -837 -372 0
v -868 -372 0
v -868 -341 0
v -837 -341 0
v -806 -372 0
v -837 -372 0
v -837 -341 0
v -806 -341 0
v -775 -372 0
v -806 -372 0
v -806 -341 0
v -775 -341 0
v -744 -372 0
v -775 -372 0
v -775 -341 0
v -744 -341 0
v -713 -372 0
v -744 -372 0
v -744 -341 0
v -713 -341 0
v -186 -372 0
v -217 -372 0
v -217 -341 0
v -186 -341 0
v -155 -372 0
v -186 -372 0
v -186 -341 0
v -155 -341 0
v -124 -372 0
v -155 -372 0
v -155 -341 0
v -124 -341 0
v -93 -372 0
v -124 -372 0
v -124 -341 0
v -93 -341 0
v -62 -372 0
v -93 -372 0
v -93 -341 0
v -62 -341 0
v -31 -372 0
v -62 -372 0
v -62 -341 0
v -31 -341 0
v 0 -372 0
v -31 -372 0
v -31 -341 0
v 0 -341 0
v -961 -403 0
v -992 -403 0
v -992 -372 0
v -961 -372 0
v -930 -403 0
v -961 -403 0
v -961 -372 0
v -930 -372 0
v -899 -403 0
v -930 -403 0
v -930 -372 0
v -899 -372 0
v -868 -403 0
v -899 -403 0
v -899 -372 0
v -868 -372 0
v -837 -403 0
v -868 -403 0
v -868 -372 0
v -837 -372 0
v -806 -403 0
v -837 -403 0
v -837 -372 0
v -806 -372 0
v -775 -403 0
v -806 -403 0
v -806 -372 0
v -775 -372 0
v -744 -403 0
v -775 -403 0
v -775 -372 0
v -744 -372 0
v -186 -403 0
v -217 -403 0
v -217 -372 0
v -186 -372 0
v -155 -403 0
v -186 -403 0
v -186 -372 0
v -155 -372 0
v -124 -403 0
v -155 -403 0
v -155 -372 0
v -124 -372 0
v -93 -403 0
v -124 -403 0
v -124 -372 0
v -93 -372 0
v -62 -403 0
v -93 -403 0
v -93 -372 0
v -62 -372 0
v -31 -403 0
v -62 -403 0
v -62 -372 0
v -31 -372 0
v 0 -403 0
v -31 -403 0
v -31 -372 0
v 0 -372 0
v -186 -434 0
v -217 -434 0
v -217 -403 0
v -186 -403 0
v -155 -434 0
v -186 -434 0
v -186 -403 0
v -155 -403 0
v -124 -434 0
v -155 -434 0
v -155 -403 0
v -124 -403 0
v -93 -434 0
v -124 -434 0
v -124 -403 0
v -93 -403 0
v -62 -434 0
v -93 -434 0
v -93 -403 0
v -62 -403 0
v -31 -434 0
v -62 -434 0
v -62 -403 0
v -31 -403 0
v 0 -434 0
v -31 -434 0
v -31 -403 0
v 0 -403 0
v -217 -465 0
v -248 -465 0
v -248 -434 0
v -217 -434 0
v -186 -465 0
v -217 -465 0
v -217 -434 0
v -186 -434 0
v -155 -465 0
v -186 -465 0
v -186 -434 0
v -155 -434 0
v -124 -465 0
v -155 -465 0
v -155 -434 0
v -124 -434 0
v -93 -465 0
v -124 -465 0
v -124 -434 0
v -93 -434 0
v -62 -465 0
v -93 -465 0
v -93 -434 0
v -62 -434 0
v -31 -465 0
v -62 -465 0
v -62 -434 0
v -31 -434 0
v 0 -465 0
v -31 -465 0
v -31 -434 0
v 0 -434 0
v -217 -496 0
v -248 -496 0
v -248 -465 0
v -217 -465 0
v -186 -496 0
v -217 -496 0
v -217 -465 0
v -186 -465 0
v -155 -496 0
v -186 -496 0
v -186 -465 0
v -155 -465 0
v -124 -496 0
v -155 -496 0
v -155 -465 0
v -124 -465 0
v -93 -496 0
v -124 -496 0
v -124 -465 0
v -93 -465 0
v -62 -496 0
v -93 -496 0
v -93 -465 0
v -62 -465 0
v -31 -496 0
v -62 -496 0
v -62 -465 0
v -31 -465 0
v 0 -496 0
v -31 -496 0
v -31 -465 0
v 0 -465 0
v -186 -527 0
v -217 -527 0
v -217 -496 0
v -186 -496 0
v -155 -527 0
v -186 -527 0
v -186 -496 0
v -155 -496 0
v -124 -527 0
v -155 -527 0
v -155 -496 0
v -124 -496 0
v -93 -527 0
v -124 -527 0
v -124 -496 0
v -93 -496 0
v -62 -527 0
v -93 -527 0
v -93 -496 0
v -62 -496 0
v -31 -527 0
v -62 -527 0
v -62 -496 0
v -31 -496 0
v 0 -527 0
v -31 -527 0
v -31 -496 0
v 0 -496 0
v -1209 -558 0
v -1240 -558 0
v -1240 -527 0
v -1209 -527 0
v -1178 -558 0
v -1209 -558 0
v -1209 -527 0
v -1178 -527 0
v -1147 -558 0
v -1178 -558 0
v -1178 -527 0
v -1147 -527 0
v -1116 -558 0
v -1147 -558 0
v -1147 -527 0
v -1116 -527 0
v -1085 -558 0
v -1116 -558 0
v -1116 -527 0
v -1085 -527 0
v -1054 -558 0
v -1085 -558 0
v -1085 -527 0
v -1054 -527 0
v -1023 -558 0
v -1054 -558 0
v -1054 -527 0
v -1023 -527 0
v -992 -558 0
v -1023 -558 0
v -1023 -527 0
v -992 -527 0
v -961 -558 0
v -992 -558 0
v -992 -527 0
v -961 -527 0
v -930 -558 0
v -961 -558 0
v -961 -527 0
v -930 -527 0
v -899 -558 0
v -930 -558 0
v -930 -527 0
v -899 -527 0
v -868 -558 0
v -899 -558 0
v -899 -527 0
v -868 -527 0
v -837 -558 0
v -868 -558 0
v -868 -527 0
v -837 -527 0
v -806 -558 0
v -837 -558 0
v -837 -527 0
v -806 -527 0
v -775 -558 0
v -806 -558 0
v -806 -527 0
v -775 -527 0
v -744 -558 0
v -775 -558 0
v -775 -527 0
v -744 -527 0
v -713 -558 0
v -744 -558 0
v -744 -527 0
v -713 -527 0
v -682 -558 0
v -713 -558 0
v -713 -527 0
v -682 -527 0
v -651 -558 0
v -682 -558 0
v -682 -527 0
v -651 -527 0
v -620 -558 0
v -651 -558 0
v -651 -527 0
v -620 -527 0
v -589 -558 0
v -620 -558 0
v -620 -527 0
v -589 -527 0
v -558 -558 0
v -589 -558 0
v -589 -527 0
v -558 -527 0
v -527 -558 0
v -558 -558 0
v -558 -527 0
v -527 -527 0
v -496 -558 0
v -527 -558 0
v -527 -527 0
v -496 -527 0
v -465 -558 0
v -496 -558 0
v -496 -527 0
v -465 -527 0
v -434 -558 0
v -465 -558 0
v -465 -527 0
v -434 -527 0
v -403 -558 0
v -434 -558 0
v -434 -527 0
v -403 -527 0
v -372 -558 0
v -403 -558 0
v -403 -527 0
v -372 -527 0
v -341 -558 0
v -372 -558 0
v -372 -527 0
v -341 -527 0
v -310 -558 0
v -341 -558 0
v -341 -527 0
v -310 -527 0
v -279 -558 0
v -310 -558 0
v -310 -527 0
v -279 -527 0
v -248 -558 0
v -279 -558 0
v -279 -527 0
v -248 -527 0
v -217 -558 0
v -248 -558 0
v -248 -527 0
v -217 -527 0
v -186 -558 0
v -217 -558 0
v -217 -527 0
v -186 -527 0
v -155 -558 0
v -186 -558 0
v -186 -527 0
v -155 -527 0
v -124 -558 0
v -155 -558 0
v -155 -527 0
v -124 -527 0
v -93 -558 0
v -124 -558 0
v -124 -527 0
v -93 -527 0
v -62 -558 0
v -93 -558 0
v -93 -527 0
v -62 -527 0
v -31 -558 0
v -62 -558 0
v -62 -527 0
v -31 -527 0
v 0 -558 0
v -31 -558 0
v -31 -527 0
v 0 -527 0

# Texture cooridinates (Count = 108)
vt 0.7396166 0.05007589
vt 0.7891374 0.05007589
vt 0.7891374 0.09711683
vt 0.7396166 0.09711683
vt 0.6341853 0.2503794
vt 0.683706 0.2503794
vt 0.683706 0.2974203
vt 0.6341853 0.2974203
vt 0.4760383 0.2003035
vt 0.5255591 0.2003035
vt 0.5255591 0.2473444
vt 0.4760383 0.2473444
vt 0.4233227 0.2003035
vt 0.4728434 0.2003035
vt 0.4728434 0.2473444
vt 0.4233227 0.2473444
vt 0.528754 0.2003035
vt 0.5782748 0.2003035
vt 0.5782748 0.2473444
vt 0.528754 0.2473444
vt 0.5814697 0.2003035
vt 0.6309904 0.2003035
vt 0.6309904 0.2473444
vt 0.5814697 0.2473444
vt 0.5814697 0.1001517
vt 0.6309904 0.1001517
vt 0.6309904 0.1471927
vt 0.5814697 0.1471927
vt 0.370607 0.2003035
vt 0.4201278 0.2003035
vt 0.4201278 0.2473444
vt 0.370607 0.2473444
vt 0.4760383 0.2503794
vt 0.5255591 0.2503794
vt 0.5255591 0.2974203
vt 0.4760383 0.2974203
vt 0.528754 0.2503794
vt 0.5782748 0.2503794
vt 0.5782748 0.2974203
vt 0.528754 0.2974203
vt 0.370607 0.2503794
vt 0.4201278 0.2503794
vt 0.4201278 0.2974203
vt 0.370607 0.2974203
vt 0.5814697 0.2503794
vt 0.6309904 0.2503794
vt 0.6309904 0.2974203
vt 0.5814697 0.2974203
vt 0.2651757 0.400607
vt 0.3146965 0.400607
vt 0.3146965 0.4476479
vt 0.2651757 0.4476479
vt 0.1597444 0.3505311
vt 0.2092652 0.3505311
vt 0.2092652 0.3975721
vt 0.1597444 0.3975721
vt 0.2124601 0.3505311
vt 0.2619808 0.3505311
vt 0.2619808 0.3975721
vt 0.2124601 0.3975721
vt 0.2124601 0.400607
vt 0.2619808 0.400607
vt 0.2619808 0.4476479
vt 0.2124601 0.4476479
vt 0.2651757 0.3505311
vt 0.3146965 0.3505311
vt 0.3146965 0.3975721
vt 0.2651757 0.3975721
vt 0.2651757 0.1001517
vt 0.3146965 0.1001517
vt 0.3146965 0.1471927
vt 0.2651757 0.1471927
vt 0.1070288 0.3505311
vt 0.1565495 0.3505311
vt 0.1565495 0.3975721
vt 0.1070288 0.3975721
vt 0.4233227 0.1502276
vt 0.4728434 0.1502276
vt 0.4728434 0.1972686
vt 0.4233227 0.1972686
vt 0.001597444 0.3505311
vt 0.05111821 0.3505311
vt 0.05111821 0.3975721
vt 0.001597444 0.3975721
vt 0.1597444 0.400607
vt 0.2092652 0.400607
vt 0.2092652 0.4476479
vt 0.1597444 0.4476479
vt 0.528754 0.400607
vt 0.5782748 0.400607
vt 0.5782748 0.4476479
vt 0.528754 0.4476479
vt 0.7923323 0.2003035
vt 0.841853 0.2003035
vt 0.841853 0.2473444
vt 0.7923323 0.2473444
vt 0.001597444 0.400607
vt 0.05111821 0.400607
vt 0.05111821 0.4476479
vt 0.001597444 0.4476479
vt 0.845048 0.4506829
vt 0.8945687 0.4506829
vt 0.8945687 0.4977238
vt 0.845048 0.4977238
vt 0.1070288 0.400607
vt 0.1565495 0.400607
vt 0.1565495 0.4476479
vt 0.1070288 0.4476479

# Normal
vn 0 0 -1

# Mesh description
g map1_mesh_0012

# Faces
f 1/1/1 2/2/1 3/3/1 4/4/1
f 5/1/1 6/2/1 7/3/1 8/4/1
f 9/1/1 10/2/1 11/3/1 12/4/1
f 13/1/1 14/2/1 15/3/1 16/4/1
f 17/1/1 18/2/1 19/3/1 20/4/1
f 21/1/1 22/2/1 23/3/1 24/4/1
f 25/1/1 26/2/1 27/3/1 28/4/1
f 29/1/1 30/2/1 31/3/1 32/4/1
f 33/1/1 34/2/1 35/3/1 36/4/1
f 37/1/1 38/2/1 39/3/1 40/4/1
f 41/1/1 42/2/1 43/3/1 44/4/1
f 45/1/1 46/2/1 47/3/1 48/4/1
f 49/1/1 50/2/1 51/3/1 52/4/1
f 53/1/1 54/2/1 55/3/1 56/4/1
f 57/1/1 58/2/1 59/3/1 60/4/1
f 61/1/1 62/2/1 63/3/1 64/4/1
f 65/1/1 66/2/1 67/3/1 68/4/1
f 69/5/1 70/6/1 71/7/1 72/8/1
f 73/9/1 74/10/1 75/11/1 76/12/1
f 77/9/1 78/10/1 79/11/1 80/12/1
f 81/13/1 82/14/1 83/15/1 84/16/1
f 85/1/1 86/2/1 87/3/1 88/4/1
f 89/1/1 90/2/1 91/3/1 92/4/1
f 93/9/1 94/10/1 95/11/1 96/12/1
f 97/17/1 98/18/1 99/19/1 100/20/1
f 101/17/1 102/18/1 103/19/1 104/20/1
f 105/21/1 106/22/1 107/23/1 108/24/1
f 109/25/1 110/26/1 111/27/1 112/28/1
f 113/25/1 114/26/1 115/27/1 116/28/1
f 117/25/1 118/26/1 119/27/1 120/28/1
f 121/1/1 122/2/1 123/3/1 124/4/1
f 125/1/1 126/2/1 127/3/1 128/4/1
f 129/1/1 130/2/1 131/3/1 132/4/1
f 133/1/1 134/2/1 135/3/1 136/4/1
f 137/1/1 138/2/1 139/3/1 140/4/1
f 141/1/1 142/2/1 143/3/1 144/4/1
f 145/1/1 146/2/1 147/3/1 148/4/1
f 149/1/1 150/2/1 151/3/1 152/4/1
f 153/25/1 154/26/1 155/27/1 156/28/1
f 157/25/1 158/26/1 159/27/1 160/28/1
f 161/25/1 162/26/1 163/27/1 164/28/1
f 165/25/1 166/26/1 167/27/1 168/28/1
f 169/25/1 170/26/1 171/27/1 172/28/1
f 173/25/1 174/26/1 175/27/1 176/28/1
f 177/25/1 178/26/1 179/27/1 180/28/1
f 181/25/1 182/26/1 183/27/1 184/28/1
f 185/29/1 186/30/1 187/31/1 188/32/1
f 189/33/1 190/34/1 191/35/1 192/36/1
f 193/33/1 194/34/1 195/35/1 196/36/1
f 197/37/1 198/38/1 199/39/1 200/40/1
f 201/33/1 202/34/1 203/35/1 204/36/1
f 205/37/1 206/38/1 207/39/1 208/40/1
f 209/33/1 210/34/1 211/35/1 212/36/1
f 213/41/1 214/42/1 215/43/1 216/44/1
f 217/45/1 218/46/1 219/47/1 220/48/1
f 221/17/1 222/18/1 223/19/1 224/20/1
f 225/17/1 226/18/1 227/19/1 228/20/1
f 229/13/1 230/14/1 231/15/1 232/16/1
f 233/13/1 234/14/1 235/15/1 236/16/1
f 237/1/1 238/2/1 239/3/1 240/4/1
f 241/1/1 242/2/1 243/3/1 244/4/1
f 245/5/1 246/6/1 247/7/1 248/8/1
f 249/49/1 250/50/1 251/51/1 252/52/1
f 253/53/1 254/54/1 255/55/1 256/56/1
f 257/53/1 258/54/1 259/55/1 260/56/1
f 261/53/1 262/54/1 263/55/1 264/56/1
f 265/57/1 266/58/1 267/59/1 268/60/1
f 269/45/1 270/46/1 271/47/1 272/48/1
f 273/61/1 274/62/1 275/63/1 276/64/1
f 277/65/1 278/66/1 279/67/1 280/68/1
f 281/69/1 282/70/1 283/71/1 284/72/1
f 285/69/1 286/70/1 287/71/1 288/72/1
f 289/69/1 290/70/1 291/71/1 292/72/1
f 293/69/1 294/70/1 295/71/1 296/72/1
f 297/73/1 298/74/1 299/75/1 300/76/1
f 301/57/1 302/58/1 303/59/1 304/60/1
f 305/69/1 306/70/1 307/71/1 308/72/1
f 309/69/1 310/70/1 311/71/1 312/72/1
f 313/69/1 314/70/1 315/71/1 316/72/1
f 317/69/1 318/70/1 319/71/1 320/72/1
f 321/69/1 322/70/1 323/71/1 324/72/1
f 325/1/1 326/2/1 327/3/1 328/4/1
f 329/1/1 330/2/1 331/3/1 332/4/1
f 333/1/1 334/2/1 335/3/1 336/4/1
f 337/1/1 338/2/1 339/3/1 340/4/1
f 341/1/1 342/2/1 343/3/1 344/4/1
f 345/1/1 346/2/1 347/3/1 348/4/1
f 349/1/1 350/2/1 351/3/1 352/4/1
f 353/1/1 354/2/1 355/3/1 356/4/1
f 357/77/1 358/78/1 359/79/1 360/80/1
f 361/69/1 362/70/1 363/71/1 364/72/1
f 365/69/1 366/70/1 367/71/1 368/72/1
f 369/69/1 370/70/1 371/71/1 372/72/1
f 373/69/1 374/70/1 375/71/1 376/72/1
f 377/69/1 378/70/1 379/71/1 380/72/1
f 381/69/1 382/70/1 383/71/1 384/72/1
f 385/1/1 386/2/1 387/3/1 388/4/1
f 389/1/1 390/2/1 391/3/1 392/4/1
f 393/1/1 394/2/1 395/3/1 396/4/1
f 397/1/1 398/2/1 399/3/1 400/4/1
f 401/1/1 402/2/1 403/3/1 404/4/1
f 405/1/1 406/2/1 407/3/1 408/4/1
f 409/1/1 410/2/1 411/3/1 412/4/1
f 413/1/1 414/2/1 415/3/1 416/4/1
f 417/1/1 418/2/1 419/3/1 420/4/1
f 421/77/1 422/78/1 423/79/1 424/80/1
f 425/81/1 426/82/1 427/83/1 428/84/1
f 429/85/1 430/86/1 431/87/1 432/88/1
f 433/89/1 434/90/1 435/91/1 436/92/1
f 437/93/1 438/94/1 439/95/1 440/96/1
f 441/93/1 442/94/1 443/95/1 444/96/1
f 445/93/1 446/94/1 447/95/1 448/96/1
f 449/1/1 450/2/1 451/3/1 452/4/1
f 453/1/1 454/2/1 455/3/1 456/4/1
f 457/1/1 458/2/1 459/3/1 460/4/1
f 461/1/1 462/2/1 463/3/1 464/4/1
f 465/1/1 466/2/1 467/3/1 468/4/1
f 469/1/1 470/2/1 471/3/1 472/4/1
f 473/1/1 474/2/1 475/3/1 476/4/1
f 477/1/1 478/2/1 479/3/1 480/4/1
f 481/1/1 482/2/1 483/3/1 484/4/1
f 485/85/1 486/86/1 487/87/1 488/88/1
f 489/97/1 490/98/1 491/99/1 492/100/1
f 493/25/1 494/26/1 495/27/1 496/28/1
f 497/101/1 498/102/1 499/103/1 500/104/1
f 501/85/1 502/86/1 503/87/1 504/88/1
f 505/105/1 506/106/1 507/107/1 508/108/1
f 509/105/1 510/106/1 511/107/1 512/108/1
f 513/1/1 514/2/1 515/3/1 516/4/1
f 517/1/1 518/2/1 519/3/1 520/4/1
f 521/1/1 522/2/1 523/3/1 524/4/1
f 525/1/1 526/2/1 527/3/1 528/4/1
f 529/1/1 530/2/1 531/3/1 532/4/1
f 533/1/1 534/2/1 535/3/1 536/4/1
f 537/1/1 538/2/1 539/3/1 540/4/1
f 541/1/1 542/2/1 543/3/1 544/4/1
f 545/33/1 546/34/1 547/35/1 548/36/1
f 549/33/1 550/34/1 551/35/1 552/36/1
f 553/33/1 554/34/1 555/35/1 556/36/1
f 557/33/1 558/34/1 559/35/1 560/36/1
f 561/33/1 562/34/1 563/35/1 564/36/1
f 565/33/1 566/34/1 567/35/1 568/36/1
f 569/33/1 570/34/1 571/35/1 572/36/1
f 573/17/1 574/18/1 575/19/1 576/20/1
f 577/17/1 578/18/1 579/19/1 580/20/1
f 581/17/1 582/18/1 583/19/1 584/20/1
f 585/17/1 586/18/1 587/19/1 588/20/1
f 589/17/1 590/18/1 591/19/1 592/20/1
f 593/17/1 594/18/1 595/19/1 596/20/1
f 597/17/1 598/18/1 599/19/1 600/20/1
f 601/25/1 602/26/1 603/27/1 604/28/1
f 605/25/1 606/26/1 607/27/1 608/28/1
f 609/25/1 610/26/1 611/27/1 612/28/1
f 613/25/1 614/26/1 615/27/1 616/28/1
f 617/25/1 618/26/1 619/27/1 620/28/1
f 621/25/1 622/26/1 623/27/1 624/28/1
f 625/25/1 626/26/1 627/27/1 628/28/1
f 629/25/1 630/26/1 631/27/1 632/28/1
f 633/25/1 634/26/1 635/27/1 636/28/1
f 637/25/1 638/26/1 639/27/1 640/28/1
f 641/25/1 642/26/1 643/27/1 644/28/1
f 645/25/1 646/26/1 647/27/1 648/28/1
f 649/25/1 650/26/1 651/27/1 652/28/1
f 653/25/1 654/26/1 655/27/1 656/28/1
f 657/25/1 658/26/1 659/27/1 660/28/1
f 661/25/1 662/26/1 663/27/1 664/28/1
f 665/33/1 666/34/1 667/35/1 668/36/1
f 669/33/1 670/34/1 671/35/1 672/36/1
f 673/33/1 674/34/1 675/35/1 676/36/1
f 677/33/1 678/34/1 679/35/1 680/36/1
f 681/33/1 682/34/1 683/35/1 684/36/1
f 685/33/1 686/34/1 687/35/1 688/36/1
f 689/33/1 690/34/1 691/35/1 692/36/1
f 693/1/1 694/2/1 695/3/1 696/4/1
f 697/1/1 698/2/1 699/3/1 700/4/1
f 701/1/1 702/2/1 703/3/1 704/4/1
f 705/1/1 706/2/1 707/3/1 708/4/1
f 709/1/1 710/2/1 711/3/1 712/4/1
f 713/1/1 714/2/1 715/3/1 716/4/1
f 717/1/1 718/2/1 719/3/1 720/4/1
f 721/1/1 722/2/1 723/3/1 724/4/1
f 725/1/1 726/2/1 727/3/1 728/4/1
f 729/1/1 730/2/1 731/3/1 732/4/1
f 733/1/1 734/2/1 735/3/1 736/4/1
f 737/1/1 738/2/1 739/3/1 740/4/1
f 741/1/1 742/2/1 743/3/1 744/4/1
f 745/1/1 746/2/1 747/3/1 748/4/1
f 749/1/1 750/2/1 751/3/1 752/4/1
f 753/1/1 754/2/1 755/3/1 756/4/1
f 757/1/1 758/2/1 759/3/1 760/4/1
f 761/1/1 762/2/1 763/3/1 764/4/1
f 765/1/1 766/2/1 767/3/1 768/4/1
f 769/1/1 770/2/1 771/3/1 772/4/1
f 773/1/1 774/2/1 775/3/1 776/4/1
f 777/1/1 778/2/1 779/3/1 780/4/1
f 781/1/1 782/2/1 783/3/1 784/4/1
f 785/1/1 786/2/1 787/3/1 788/4/1
f 789/1/1 790/2/1 791/3/1 792/4/1
f 793/1/1 794/2/1 795/3/1 796/4/1
f 797/1/1 798/2/1 799/3/1 800/4/1
f 801/1/1 802/2/1 803/3/1 804/4/1
f 805/1/1 806/2/1 807/3/1 808/4/1
f 809/1/1 810/2/1 811/3/1 812/4/1
f 813/1/1 814/2/1 815/3/1 816/4/1
f 817/1/1 818/2/1 819/3/1 820/4/1
f 821/1/1 822/2/1 823/3/1 824/4/1
f 825/1/1 826/2/1 827/3/1 828/4/1
f 829/1/1 830/2/1 831/3/1 832/4/1
f 833/1/1 834/2/1 835/3/1 836/4/1
f 837/1/1 838/2/1 839/3/1 840/4/1
f 841/1/1 842/2/1 843/3/1 844/4/1
f 845/1/1 846/2/1 847/3/1 848/4/1
f 849/1/1 850/2/1 851/3/1 852/4/1

