# Tiled2Unity generated file. Do not modify by hand.
# Wavefront file for 'map1_mesh_0006.obj'

# Vertices (Count = 356)
v -992 -124 0
v -1023 -124 0
v -1023 -93 0
v -992 -93 0
v -961 -124 0
v -992 -124 0
v -992 -93 0
v -961 -93 0
v -930 -124 0
v -961 -124 0
v -961 -93 0
v -930 -93 0
v -899 -124 0
v -930 -124 0
v -930 -93 0
v -899 -93 0
v -868 -124 0
v -899 -124 0
v -899 -93 0
v -868 -93 0
v -837 -124 0
v -868 -124 0
v -868 -93 0
v -837 -93 0
v -806 -124 0
v -837 -124 0
v -837 -93 0
v -806 -93 0
v -775 -124 0
v -806 -124 0
v -806 -93 0
v -775 -93 0
v -992 -155 0
v -1023 -155 0
v -1023 -124 0
v -992 -124 0
v -961 -155 0
v -992 -155 0
v -992 -124 0
v -961 -124 0
v -930 -155 0
v -961 -155 0
v -961 -124 0
v -930 -124 0
v -899 -155 0
v -930 -155 0
v -930 -124 0
v -899 -124 0
v -868 -155 0
v -899 -155 0
v -899 -124 0
v -868 -124 0
v -837 -155 0
v -868 -155 0
v -868 -124 0
v -837 -124 0
v -806 -155 0
v -837 -155 0
v -837 -124 0
v -806 -124 0
v -775 -155 0
v -806 -155 0
v -806 -124 0
v -775 -124 0
v -992 -186 0
v -1023 -186 0
v -1023 -155 0
v -992 -155 0
v -961 -186 0
v -992 -186 0
v -992 -155 0
v -961 -155 0
v -930 -186 0
v -961 -186 0
v -961 -155 0
v -930 -155 0
v -899 -186 0
v -930 -186 0
v -930 -155 0
v -899 -155 0
v -868 -186 0
v -899 -186 0
v -899 -155 0
v -868 -155 0
v -837 -186 0
v -868 -186 0
v -868 -155 0
v -837 -155 0
v -806 -186 0
v -837 -186 0
v -837 -155 0
v -806 -155 0
v -775 -186 0
v -806 -186 0
v -806 -155 0
v -775 -155 0
v -992 -217 0
v -1023 -217 0
v -1023 -186 0
v -992 -186 0
v -961 -217 0
v -992 -217 0
v -992 -186 0
v -961 -186 0
v -930 -217 0
v -961 -217 0
v -961 -186 0
v -930 -186 0
v -899 -217 0
v -930 -217 0
v -930 -186 0
v -899 -186 0
v -868 -217 0
v -899 -217 0
v -899 -186 0
v -868 -186 0
v -837 -217 0
v -868 -217 0
v -868 -186 0
v -837 -186 0
v -806 -217 0
v -837 -217 0
v -837 -186 0
v -806 -186 0
v -992 -248 0
v -1023 -248 0
v -1023 -217 0
v -992 -217 0
v -961 -248 0
v -992 -248 0
v -992 -217 0
v -961 -217 0
v -930 -248 0
v -961 -248 0
v -961 -217 0
v -930 -217 0
v -899 -248 0
v -930 -248 0
v -930 -217 0
v -899 -217 0
v -868 -248 0
v -899 -248 0
v -899 -217 0
v -868 -217 0
v -837 -248 0
v -868 -248 0
v -868 -217 0
v -837 -217 0
v -806 -248 0
v -837 -248 0
v -837 -217 0
v -806 -217 0
v -992 -279 0
v -1023 -279 0
v -1023 -248 0
v -992 -248 0
v -961 -279 0
v -992 -279 0
v -992 -248 0
v -961 -248 0
v -930 -279 0
v -961 -279 0
v -961 -248 0
v -930 -248 0
v -899 -279 0
v -930 -279 0
v -930 -248 0
v -899 -248 0
v -868 -279 0
v -899 -279 0
v -899 -248 0
v -868 -248 0
v -837 -279 0
v -868 -279 0
v -868 -248 0
v -837 -248 0
v -806 -279 0
v -837 -279 0
v -837 -248 0
v -806 -248 0
v -992 -310 0
v -1023 -310 0
v -1023 -279 0
v -992 -279 0
v -961 -310 0
v -992 -310 0
v -992 -279 0
v -961 -279 0
v -930 -310 0
v -961 -310 0
v -961 -279 0
v -930 -279 0
v -899 -310 0
v -930 -310 0
v -930 -279 0
v -899 -279 0
v -868 -310 0
v -899 -310 0
v -899 -279 0
v -868 -279 0
v -837 -310 0
v -868 -310 0
v -868 -279 0
v -837 -279 0
v -806 -310 0
v -837 -310 0
v -837 -279 0
v -806 -279 0
v -992 -341 0
v -1023 -341 0
v -1023 -310 0
v -992 -310 0
v -961 -341 0
v -992 -341 0
v -992 -310 0
v -961 -310 0
v -930 -341 0
v -961 -341 0
v -961 -310 0
v -930 -310 0
v -899 -341 0
v -930 -341 0
v -930 -310 0
v -899 -310 0
v -868 -341 0
v -899 -341 0
v -899 -310 0
v -868 -310 0
v -837 -341 0
v -868 -341 0
v -868 -310 0
v -837 -310 0
v -806 -341 0
v -837 -341 0
v -837 -310 0
v -806 -310 0
v -775 -341 0
v -806 -341 0
v -806 -310 0
v -775 -310 0
v -992 -372 0
v -1023 -372 0
v -1023 -341 0
v -992 -341 0
v -961 -372 0
v -992 -372 0
v -992 -341 0
v -961 -341 0
v -930 -372 0
v -961 -372 0
v -961 -341 0
v -930 -341 0
v -899 -372 0
v -930 -372 0
v -930 -341 0
v -899 -341 0
v -868 -372 0
v -899 -372 0
v -899 -341 0
v -868 -341 0
v -837 -372 0
v -868 -372 0
v -868 -341 0
v -837 -341 0
v -806 -372 0
v -837 -372 0
v -837 -341 0
v -806 -341 0
v -775 -372 0
v -806 -372 0
v -806 -341 0
v -775 -341 0
v -992 -403 0
v -1023 -403 0
v -1023 -372 0
v -992 -372 0
v -961 -403 0
v -992 -403 0
v -992 -372 0
v -961 -372 0
v -930 -403 0
v -961 -403 0
v -961 -372 0
v -930 -372 0
v -899 -403 0
v -930 -403 0
v -930 -372 0
v -899 -372 0
v -868 -403 0
v -899 -403 0
v -899 -372 0
v -868 -372 0
v -837 -403 0
v -868 -403 0
v -868 -372 0
v -837 -372 0
v -806 -403 0
v -837 -403 0
v -837 -372 0
v -806 -372 0
v -775 -403 0
v -806 -403 0
v -806 -372 0
v -775 -372 0
v -992 -434 0
v -1023 -434 0
v -1023 -403 0
v -992 -403 0
v -961 -434 0
v -992 -434 0
v -992 -403 0
v -961 -403 0
v -930 -434 0
v -961 -434 0
v -961 -403 0
v -930 -403 0
v -899 -434 0
v -930 -434 0
v -930 -403 0
v -899 -403 0
v -868 -434 0
v -899 -434 0
v -899 -403 0
v -868 -403 0
v -837 -434 0
v -868 -434 0
v -868 -403 0
v -837 -403 0
v -806 -434 0
v -837 -434 0
v -837 -403 0
v -806 -403 0
v -775 -434 0
v -806 -434 0
v -806 -403 0
v -775 -403 0
v -992 -465 0
v -1023 -465 0
v -1023 -434 0
v -992 -434 0
v -961 -465 0
v -992 -465 0
v -992 -434 0
v -961 -434 0
v -837 -465 0
v -868 -465 0
v -868 -434 0
v -837 -434 0
v -806 -465 0
v -837 -465 0
v -837 -434 0
v -806 -434 0
v -775 -465 0
v -806 -465 0
v -806 -434 0
v -775 -434 0

# Texture cooridinates (Count = 36)
vt 0.4233227 0.9013657
vt 0.4728434 0.9013657
vt 0.4728434 0.9484067
vt 0.4233227 0.9484067
vt 0.001597444 0.9013657
vt 0.05111821 0.9013657
vt 0.05111821 0.9484067
vt 0.001597444 0.9484067
vt 0.6341853 0.1001517
vt 0.683706 0.1001517
vt 0.683706 0.1471927
vt 0.6341853 0.1471927
vt 0.1070288 0.9013657
vt 0.1565495 0.9013657
vt 0.1565495 0.9484067
vt 0.1070288 0.9484067
vt 0.0543131 0.9013657
vt 0.1038339 0.9013657
vt 0.1038339 0.9484067
vt 0.0543131 0.9484067
vt 0.8977636 0.9514416
vt 0.9472843 0.9514416
vt 0.9472843 0.9984825
vt 0.8977636 0.9984825
vt 0.845048 0.8512899
vt 0.8945687 0.8512899
vt 0.8945687 0.8983308
vt 0.845048 0.8983308
vt 0.3178914 0.9013657
vt 0.3674121 0.9013657
vt 0.3674121 0.9484067
vt 0.3178914 0.9484067
vt 0.2124601 0.9013657
vt 0.2619808 0.9013657
vt 0.2619808 0.9484067
vt 0.2124601 0.9484067

# Normal
vn 0 0 -1

# Mesh description
g map1_mesh_0006

# Faces
f 1/1/1 2/2/1 3/3/1 4/4/1
f 5/1/1 6/2/1 7/3/1 8/4/1
f 9/1/1 10/2/1 11/3/1 12/4/1
f 13/1/1 14/2/1 15/3/1 16/4/1
f 17/1/1 18/2/1 19/3/1 20/4/1
f 21/1/1 22/2/1 23/3/1 24/4/1
f 25/1/1 26/2/1 27/3/1 28/4/1
f 29/5/1 30/6/1 31/7/1 32/8/1
f 33/9/1 34/10/1 35/11/1 36/12/1
f 37/9/1 38/10/1 39/11/1 40/12/1
f 41/9/1 42/10/1 43/11/1 44/12/1
f 45/9/1 46/10/1 47/11/1 48/12/1
f 49/9/1 50/10/1 51/11/1 52/12/1
f 53/9/1 54/10/1 55/11/1 56/12/1
f 57/9/1 58/10/1 59/11/1 60/12/1
f 61/13/1 62/14/1 63/15/1 64/16/1
f 65/9/1 66/10/1 67/11/1 68/12/1
f 69/9/1 70/10/1 71/11/1 72/12/1
f 73/9/1 74/10/1 75/11/1 76/12/1
f 77/9/1 78/10/1 79/11/1 80/12/1
f 81/9/1 82/10/1 83/11/1 84/12/1
f 85/9/1 86/10/1 87/11/1 88/12/1
f 89/9/1 90/10/1 91/11/1 92/12/1
f 93/17/1 94/18/1 95/19/1 96/20/1
f 97/9/1 98/10/1 99/11/1 100/12/1
f 101/9/1 102/10/1 103/11/1 104/12/1
f 105/9/1 106/10/1 107/11/1 108/12/1
f 109/9/1 110/10/1 111/11/1 112/12/1
f 113/9/1 114/10/1 115/11/1 116/12/1
f 117/9/1 118/10/1 119/11/1 120/12/1
f 121/9/1 122/10/1 123/11/1 124/12/1
f 125/9/1 126/10/1 127/11/1 128/12/1
f 129/9/1 130/10/1 131/11/1 132/12/1
f 133/9/1 134/10/1 135/11/1 136/12/1
f 137/9/1 138/10/1 139/11/1 140/12/1
f 141/9/1 142/10/1 143/11/1 144/12/1
f 145/9/1 146/10/1 147/11/1 148/12/1
f 149/9/1 150/10/1 151/11/1 152/12/1
f 153/9/1 154/10/1 155/11/1 156/12/1
f 157/9/1 158/10/1 159/11/1 160/12/1
f 161/9/1 162/10/1 163/11/1 164/12/1
f 165/9/1 166/10/1 167/11/1 168/12/1
f 169/9/1 170/10/1 171/11/1 172/12/1
f 173/9/1 174/10/1 175/11/1 176/12/1
f 177/9/1 178/10/1 179/11/1 180/12/1
f 181/9/1 182/10/1 183/11/1 184/12/1
f 185/9/1 186/10/1 187/11/1 188/12/1
f 189/9/1 190/10/1 191/11/1 192/12/1
f 193/9/1 194/10/1 195/11/1 196/12/1
f 197/9/1 198/10/1 199/11/1 200/12/1
f 201/9/1 202/10/1 203/11/1 204/12/1
f 205/9/1 206/10/1 207/11/1 208/12/1
f 209/9/1 210/10/1 211/11/1 212/12/1
f 213/9/1 214/10/1 215/11/1 216/12/1
f 217/9/1 218/10/1 219/11/1 220/12/1
f 221/9/1 222/10/1 223/11/1 224/12/1
f 225/9/1 226/10/1 227/11/1 228/12/1
f 229/9/1 230/10/1 231/11/1 232/12/1
f 233/9/1 234/10/1 235/11/1 236/12/1
f 237/21/1 238/22/1 239/23/1 240/24/1
f 241/9/1 242/10/1 243/11/1 244/12/1
f 245/9/1 246/10/1 247/11/1 248/12/1
f 249/9/1 250/10/1 251/11/1 252/12/1
f 253/9/1 254/10/1 255/11/1 256/12/1
f 257/9/1 258/10/1 259/11/1 260/12/1
f 261/9/1 262/10/1 263/11/1 264/12/1
f 265/9/1 266/10/1 267/11/1 268/12/1
f 269/13/1 270/14/1 271/15/1 272/16/1
f 273/9/1 274/10/1 275/11/1 276/12/1
f 277/9/1 278/10/1 279/11/1 280/12/1
f 281/9/1 282/10/1 283/11/1 284/12/1
f 285/9/1 286/10/1 287/11/1 288/12/1
f 289/9/1 290/10/1 291/11/1 292/12/1
f 293/9/1 294/10/1 295/11/1 296/12/1
f 297/9/1 298/10/1 299/11/1 300/12/1
f 301/13/1 302/14/1 303/15/1 304/16/1
f 305/9/1 306/10/1 307/11/1 308/12/1
f 309/9/1 310/10/1 311/11/1 312/12/1
f 313/9/1 314/10/1 315/11/1 316/12/1
f 317/9/1 318/10/1 319/11/1 320/12/1
f 321/9/1 322/10/1 323/11/1 324/12/1
f 325/9/1 326/10/1 327/11/1 328/12/1
f 329/9/1 330/10/1 331/11/1 332/12/1
f 333/13/1 334/14/1 335/15/1 336/16/1
f 337/1/1 338/2/1 339/3/1 340/4/1
f 341/25/1 342/26/1 343/27/1 344/28/1
f 345/29/1 346/30/1 347/31/1 348/32/1
f 349/1/1 350/2/1 351/3/1 352/4/1
f 353/33/1 354/34/1 355/35/1 356/36/1

