# Tiled2Unity generated file. Do not modify by hand.
# Wavefront file for 'map1_mesh_0003.obj'

# Vertices (Count = 544)
v -186 -62 0
v -217 -62 0
v -217 -31 0
v -186 -31 0
v -155 -62 0
v -186 -62 0
v -186 -31 0
v -155 -31 0
v -124 -62 0
v -155 -62 0
v -155 -31 0
v -124 -31 0
v -93 -62 0
v -124 -62 0
v -124 -31 0
v -93 -31 0
v -62 -62 0
v -93 -62 0
v -93 -31 0
v -62 -31 0
v -31 -62 0
v -62 -62 0
v -62 -31 0
v -31 -31 0
v 0 -62 0
v -31 -62 0
v -31 -31 0
v 0 -31 0
v -217 -93 0
v -248 -93 0
v -248 -62 0
v -217 -62 0
v -186 -93 0
v -217 -93 0
v -217 -62 0
v -186 -62 0
v -155 -93 0
v -186 -93 0
v -186 -62 0
v -155 -62 0
v -124 -93 0
v -155 -93 0
v -155 -62 0
v -124 -62 0
v -93 -93 0
v -124 -93 0
v -124 -62 0
v -93 -62 0
v -62 -93 0
v -93 -93 0
v -93 -62 0
v -62 -62 0
v -31 -93 0
v -62 -93 0
v -62 -62 0
v -31 -62 0
v 0 -93 0
v -31 -93 0
v -31 -62 0
v 0 -62 0
v -558 -124 0
v -589 -124 0
v -589 -93 0
v -558 -93 0
v -527 -124 0
v -558 -124 0
v -558 -93 0
v -527 -93 0
v -496 -124 0
v -527 -124 0
v -527 -93 0
v -496 -93 0
v -465 -124 0
v -496 -124 0
v -496 -93 0
v -465 -93 0
v -434 -124 0
v -465 -124 0
v -465 -93 0
v -434 -93 0
v -403 -124 0
v -434 -124 0
v -434 -93 0
v -403 -93 0
v -372 -124 0
v -403 -124 0
v -403 -93 0
v -372 -93 0
v -341 -124 0
v -372 -124 0
v -372 -93 0
v -341 -93 0
v -310 -124 0
v -341 -124 0
v -341 -93 0
v -310 -93 0
v -279 -124 0
v -310 -124 0
v -310 -93 0
v -279 -93 0
v -248 -124 0
v -279 -124 0
v -279 -93 0
v -248 -93 0
v -217 -124 0
v -248 -124 0
v -248 -93 0
v -217 -93 0
v -186 -124 0
v -217 -124 0
v -217 -93 0
v -186 -93 0
v -155 -124 0
v -186 -124 0
v -186 -93 0
v -155 -93 0
v -124 -124 0
v -155 -124 0
v -155 -93 0
v -124 -93 0
v -93 -124 0
v -124 -124 0
v -124 -93 0
v -93 -93 0
v -62 -124 0
v -93 -124 0
v -93 -93 0
v -62 -93 0
v -31 -124 0
v -62 -124 0
v -62 -93 0
v -31 -93 0
v 0 -124 0
v -31 -124 0
v -31 -93 0
v 0 -93 0
v -744 -155 0
v -775 -155 0
v -775 -124 0
v -744 -124 0
v -713 -155 0
v -744 -155 0
v -744 -124 0
v -713 -124 0
v -682 -155 0
v -713 -155 0
v -713 -124 0
v -682 -124 0
v -651 -155 0
v -682 -155 0
v -682 -124 0
v -651 -124 0
v -620 -155 0
v -651 -155 0
v -651 -124 0
v -620 -124 0
v -589 -155 0
v -620 -155 0
v -620 -124 0
v -589 -124 0
v -558 -155 0
v -589 -155 0
v -589 -124 0
v -558 -124 0
v -527 -155 0
v -558 -155 0
v -558 -124 0
v -527 -124 0
v -496 -155 0
v -527 -155 0
v -527 -124 0
v -496 -124 0
v -465 -155 0
v -496 -155 0
v -496 -124 0
v -465 -124 0
v -434 -155 0
v -465 -155 0
v -465 -124 0
v -434 -124 0
v -403 -155 0
v -434 -155 0
v -434 -124 0
v -403 -124 0
v -372 -155 0
v -403 -155 0
v -403 -124 0
v -372 -124 0
v -341 -155 0
v -372 -155 0
v -372 -124 0
v -341 -124 0
v -310 -155 0
v -341 -155 0
v -341 -124 0
v -310 -124 0
v -279 -155 0
v -310 -155 0
v -310 -124 0
v -279 -124 0
v -248 -155 0
v -279 -155 0
v -279 -124 0
v -248 -124 0
v -217 -155 0
v -248 -155 0
v -248 -124 0
v -217 -124 0
v -186 -155 0
v -217 -155 0
v -217 -124 0
v -186 -124 0
v -155 -155 0
v -186 -155 0
v -186 -124 0
v -155 -124 0
v -124 -155 0
v -155 -155 0
v -155 -124 0
v -124 -124 0
v -93 -155 0
v -124 -155 0
v -124 -124 0
v -93 -124 0
v -62 -155 0
v -93 -155 0
v -93 -124 0
v -62 -124 0
v -31 -155 0
v -62 -155 0
v -62 -124 0
v -31 -124 0
v 0 -155 0
v -31 -155 0
v -31 -124 0
v 0 -124 0
v -775 -186 0
v -806 -186 0
v -806 -155 0
v -775 -155 0
v -744 -186 0
v -775 -186 0
v -775 -155 0
v -744 -155 0
v -713 -186 0
v -744 -186 0
v -744 -155 0
v -713 -155 0
v -682 -186 0
v -713 -186 0
v -713 -155 0
v -682 -155 0
v -651 -186 0
v -682 -186 0
v -682 -155 0
v -651 -155 0
v -620 -186 0
v -651 -186 0
v -651 -155 0
v -620 -155 0
v -589 -186 0
v -620 -186 0
v -620 -155 0
v -589 -155 0
v -558 -186 0
v -589 -186 0
v -589 -155 0
v -558 -155 0
v -527 -186 0
v -558 -186 0
v -558 -155 0
v -527 -155 0
v -496 -186 0
v -527 -186 0
v -527 -155 0
v -496 -155 0
v -465 -186 0
v -496 -186 0
v -496 -155 0
v -465 -155 0
v -434 -186 0
v -465 -186 0
v -465 -155 0
v -434 -155 0
v -403 -186 0
v -434 -186 0
v -434 -155 0
v -403 -155 0
v -372 -186 0
v -403 -186 0
v -403 -155 0
v -372 -155 0
v -341 -186 0
v -372 -186 0
v -372 -155 0
v -341 -155 0
v -310 -186 0
v -341 -186 0
v -341 -155 0
v -310 -155 0
v -279 -186 0
v -310 -186 0
v -310 -155 0
v -279 -155 0
v -248 -186 0
v -279 -186 0
v -279 -155 0
v -248 -155 0
v -217 -186 0
v -248 -186 0
v -248 -155 0
v -217 -155 0
v -186 -186 0
v -217 -186 0
v -217 -155 0
v -186 -155 0
v -155 -186 0
v -186 -186 0
v -186 -155 0
v -155 -155 0
v -124 -186 0
v -155 -186 0
v -155 -155 0
v -124 -155 0
v -93 -186 0
v -124 -186 0
v -124 -155 0
v -93 -155 0
v -62 -186 0
v -93 -186 0
v -93 -155 0
v -62 -155 0
v -31 -186 0
v -62 -186 0
v -62 -155 0
v -31 -155 0
v 0 -186 0
v -31 -186 0
v -31 -155 0
v 0 -155 0
v -775 -217 0
v -806 -217 0
v -806 -186 0
v -775 -186 0
v -744 -217 0
v -775 -217 0
v -775 -186 0
v -744 -186 0
v -713 -217 0
v -744 -217 0
v -744 -186 0
v -713 -186 0
v -682 -217 0
v -713 -217 0
v -713 -186 0
v -682 -186 0
v -651 -217 0
v -682 -217 0
v -682 -186 0
v -651 -186 0
v -620 -217 0
v -651 -217 0
v -651 -186 0
v -620 -186 0
v -589 -217 0
v -620 -217 0
v -620 -186 0
v -589 -186 0
v -558 -217 0
v -589 -217 0
v -589 -186 0
v -558 -186 0
v -527 -217 0
v -558 -217 0
v -558 -186 0
v -527 -186 0
v -496 -217 0
v -527 -217 0
v -527 -186 0
v -496 -186 0
v -465 -217 0
v -496 -217 0
v -496 -186 0
v -465 -186 0
v -434 -217 0
v -465 -217 0
v -465 -186 0
v -434 -186 0
v -403 -217 0
v -434 -217 0
v -434 -186 0
v -403 -186 0
v -372 -217 0
v -403 -217 0
v -403 -186 0
v -372 -186 0
v -341 -217 0
v -372 -217 0
v -372 -186 0
v -341 -186 0
v -310 -217 0
v -341 -217 0
v -341 -186 0
v -310 -186 0
v -279 -217 0
v -310 -217 0
v -310 -186 0
v -279 -186 0
v -775 -248 0
v -806 -248 0
v -806 -217 0
v -775 -217 0
v -744 -248 0
v -775 -248 0
v -775 -217 0
v -744 -217 0
v -713 -248 0
v -744 -248 0
v -744 -217 0
v -713 -217 0
v -682 -248 0
v -713 -248 0
v -713 -217 0
v -682 -217 0
v -651 -248 0
v -682 -248 0
v -682 -217 0
v -651 -217 0
v -620 -248 0
v -651 -248 0
v -651 -217 0
v -620 -217 0
v -589 -248 0
v -620 -248 0
v -620 -217 0
v -589 -217 0
v -558 -248 0
v -589 -248 0
v -589 -217 0
v -558 -217 0
v -527 -248 0
v -558 -248 0
v -558 -217 0
v -527 -217 0
v -496 -248 0
v -527 -248 0
v -527 -217 0
v -496 -217 0
v -465 -248 0
v -496 -248 0
v -496 -217 0
v -465 -217 0
v -434 -248 0
v -465 -248 0
v -465 -217 0
v -434 -217 0
v -775 -279 0
v -806 -279 0
v -806 -248 0
v -775 -248 0
v -744 -279 0
v -775 -279 0
v -775 -248 0
v -744 -248 0
v -713 -279 0
v -744 -279 0
v -744 -248 0
v -713 -248 0
v -682 -279 0
v -713 -279 0
v -713 -248 0
v -682 -248 0
v -651 -279 0
v -682 -279 0
v -682 -248 0
v -651 -248 0
v -620 -279 0
v -651 -279 0
v -651 -248 0
v -620 -248 0
v -589 -279 0
v -620 -279 0
v -620 -248 0
v -589 -248 0
v -558 -279 0
v -589 -279 0
v -589 -248 0
v -558 -248 0
v -527 -279 0
v -558 -279 0
v -558 -248 0
v -527 -248 0
v -496 -279 0
v -527 -279 0
v -527 -248 0
v -496 -248 0
v -775 -310 0
v -806 -310 0
v -806 -279 0
v -775 -279 0
v -744 -310 0
v -775 -310 0
v -775 -279 0
v -744 -279 0
v -713 -310 0
v -744 -310 0
v -744 -279 0
v -713 -279 0
v -682 -310 0
v -713 -310 0
v -713 -279 0
v -682 -279 0
v -651 -310 0
v -682 -310 0
v -682 -279 0
v -651 -279 0
v -620 -310 0
v -651 -310 0
v -651 -279 0
v -620 -279 0
v -589 -310 0
v -620 -310 0
v -620 -279 0
v -589 -279 0
v -558 -310 0
v -589 -310 0
v -589 -279 0
v -558 -279 0
v -527 -310 0
v -558 -310 0
v -558 -279 0
v -527 -279 0
v -496 -310 0
v -527 -310 0
v -527 -279 0
v -496 -279 0
v -775 -341 0
v -806 -341 0
v -806 -310 0
v -775 -310 0
v -744 -341 0
v -775 -341 0
v -775 -310 0
v -744 -310 0

# Texture cooridinates (Count = 64)
vt 0.7923323 0.3505311
vt 0.841853 0.3505311
vt 0.841853 0.3975721
vt 0.7923323 0.3975721
vt 0.6341853 0.3505311
vt 0.683706 0.3505311
vt 0.683706 0.3975721
vt 0.6341853 0.3975721
vt 0.5814697 0.2503794
vt 0.6309904 0.2503794
vt 0.6309904 0.2974203
vt 0.5814697 0.2974203
vt 0.4760383 0.2003035
vt 0.5255591 0.2003035
vt 0.5255591 0.2473444
vt 0.4760383 0.2473444
vt 0.4233227 0.2003035
vt 0.4728434 0.2003035
vt 0.4728434 0.2473444
vt 0.4233227 0.2473444
vt 0.528754 0.2003035
vt 0.5782748 0.2003035
vt 0.5782748 0.2473444
vt 0.528754 0.2473444
vt 0.5814697 0.2003035
vt 0.6309904 0.2003035
vt 0.6309904 0.2473444
vt 0.5814697 0.2473444
vt 0.6341853 0.1001517
vt 0.683706 0.1001517
vt 0.683706 0.1471927
vt 0.6341853 0.1471927
vt 0.6341853 0.2503794
vt 0.683706 0.2503794
vt 0.683706 0.2974203
vt 0.6341853 0.2974203
vt 0.6341853 0.2003035
vt 0.683706 0.2003035
vt 0.683706 0.2473444
vt 0.6341853 0.2473444
vt 0.370607 0.2003035
vt 0.4201278 0.2003035
vt 0.4201278 0.2473444
vt 0.370607 0.2473444
vt 0.528754 0.2503794
vt 0.5782748 0.2503794
vt 0.5782748 0.2974203
vt 0.528754 0.2974203
vt 0.4760383 0.2503794
vt 0.5255591 0.2503794
vt 0.5255591 0.2974203
vt 0.4760383 0.2974203
vt 0.370607 0.2503794
vt 0.4201278 0.2503794
vt 0.4201278 0.2974203
vt 0.370607 0.2974203
vt 0.8977636 0.3505311
vt 0.9472843 0.3505311
vt 0.9472843 0.3975721
vt 0.8977636 0.3975721
vt 0.8977636 0.3004552
vt 0.9472843 0.3004552
vt 0.9472843 0.3474962
vt 0.8977636 0.3474962

# Normal
vn 0 0 -1

# Mesh description
g map1_mesh_0003

# Faces
f 1/1/1 2/2/1 3/3/1 4/4/1
f 5/1/1 6/2/1 7/3/1 8/4/1
f 9/1/1 10/2/1 11/3/1 12/4/1
f 13/1/1 14/2/1 15/3/1 16/4/1
f 17/1/1 18/2/1 19/3/1 20/4/1
f 21/1/1 22/2/1 23/3/1 24/4/1
f 25/1/1 26/2/1 27/3/1 28/4/1
f 29/1/1 30/2/1 31/3/1 32/4/1
f 33/5/1 34/6/1 35/7/1 36/8/1
f 37/9/1 38/10/1 39/11/1 40/12/1
f 41/13/1 42/14/1 43/15/1 44/16/1
f 45/17/1 46/18/1 47/19/1 48/20/1
f 49/13/1 50/14/1 51/15/1 52/16/1
f 53/17/1 54/18/1 55/19/1 56/20/1
f 57/13/1 58/14/1 59/15/1 60/16/1
f 61/1/1 62/2/1 63/3/1 64/4/1
f 65/1/1 66/2/1 67/3/1 68/4/1
f 69/1/1 70/2/1 71/3/1 72/4/1
f 73/1/1 74/2/1 75/3/1 76/4/1
f 77/1/1 78/2/1 79/3/1 80/4/1
f 81/1/1 82/2/1 83/3/1 84/4/1
f 85/1/1 86/2/1 87/3/1 88/4/1
f 89/1/1 90/2/1 91/3/1 92/4/1
f 93/1/1 94/2/1 95/3/1 96/4/1
f 97/1/1 98/2/1 99/3/1 100/4/1
f 101/1/1 102/2/1 103/3/1 104/4/1
f 105/9/1 106/10/1 107/11/1 108/12/1
f 109/21/1 110/22/1 111/23/1 112/24/1
f 113/25/1 114/26/1 115/27/1 116/28/1
f 117/29/1 118/30/1 119/31/1 120/32/1
f 121/29/1 122/30/1 123/31/1 124/32/1
f 125/29/1 126/30/1 127/31/1 128/32/1
f 129/29/1 130/30/1 131/31/1 132/32/1
f 133/29/1 134/30/1 135/31/1 136/32/1
f 137/1/1 138/2/1 139/3/1 140/4/1
f 141/1/1 142/2/1 143/3/1 144/4/1
f 145/1/1 146/2/1 147/3/1 148/4/1
f 149/1/1 150/2/1 151/3/1 152/4/1
f 153/1/1 154/2/1 155/3/1 156/4/1
f 157/5/1 158/6/1 159/7/1 160/8/1
f 161/33/1 162/34/1 163/35/1 164/36/1
f 165/13/1 166/14/1 167/15/1 168/16/1
f 169/13/1 170/14/1 171/15/1 172/16/1
f 173/13/1 174/14/1 175/15/1 176/16/1
f 177/13/1 178/14/1 179/15/1 180/16/1
f 181/13/1 182/14/1 183/15/1 184/16/1
f 185/13/1 186/14/1 187/15/1 188/16/1
f 189/13/1 190/14/1 191/15/1 192/16/1
f 193/13/1 194/14/1 195/15/1 196/16/1
f 197/13/1 198/14/1 199/15/1 200/16/1
f 201/13/1 202/14/1 203/15/1 204/16/1
f 205/25/1 206/26/1 207/27/1 208/28/1
f 209/29/1 210/30/1 211/31/1 212/32/1
f 213/29/1 214/30/1 215/31/1 216/32/1
f 217/29/1 218/30/1 219/31/1 220/32/1
f 221/29/1 222/30/1 223/31/1 224/32/1
f 225/29/1 226/30/1 227/31/1 228/32/1
f 229/29/1 230/30/1 231/31/1 232/32/1
f 233/29/1 234/30/1 235/31/1 236/32/1
f 237/5/1 238/6/1 239/7/1 240/8/1
f 241/33/1 242/34/1 243/35/1 244/36/1
f 245/13/1 246/14/1 247/15/1 248/16/1
f 249/13/1 250/14/1 251/15/1 252/16/1
f 253/13/1 254/14/1 255/15/1 256/16/1
f 257/13/1 258/14/1 259/15/1 260/16/1
f 261/13/1 262/14/1 263/15/1 264/16/1
f 265/37/1 266/38/1 267/39/1 268/40/1
f 269/29/1 270/30/1 271/31/1 272/32/1
f 273/29/1 274/30/1 275/31/1 276/32/1
f 277/29/1 278/30/1 279/31/1 280/32/1
f 281/29/1 282/30/1 283/31/1 284/32/1
f 285/29/1 286/30/1 287/31/1 288/32/1
f 289/29/1 290/30/1 291/31/1 292/32/1
f 293/29/1 294/30/1 295/31/1 296/32/1
f 297/29/1 298/30/1 299/31/1 300/32/1
f 301/29/1 302/30/1 303/31/1 304/32/1
f 305/29/1 306/30/1 307/31/1 308/32/1
f 309/29/1 310/30/1 311/31/1 312/32/1
f 313/29/1 314/30/1 315/31/1 316/32/1
f 317/41/1 318/42/1 319/43/1 320/44/1
f 321/45/1 322/46/1 323/47/1 324/48/1
f 325/49/1 326/50/1 327/51/1 328/52/1
f 329/49/1 330/50/1 331/51/1 332/52/1
f 333/49/1 334/50/1 335/51/1 336/52/1
f 337/49/1 338/50/1 339/51/1 340/52/1
f 341/13/1 342/14/1 343/15/1 344/16/1
f 345/25/1 346/26/1 347/27/1 348/28/1
f 349/29/1 350/30/1 351/31/1 352/32/1
f 353/29/1 354/30/1 355/31/1 356/32/1
f 357/29/1 358/30/1 359/31/1 360/32/1
f 361/29/1 362/30/1 363/31/1 364/32/1
f 365/29/1 366/30/1 367/31/1 368/32/1
f 369/29/1 370/30/1 371/31/1 372/32/1
f 373/29/1 374/30/1 375/31/1 376/32/1
f 377/29/1 378/30/1 379/31/1 380/32/1
f 381/29/1 382/30/1 383/31/1 384/32/1
f 385/29/1 386/30/1 387/31/1 388/32/1
f 389/29/1 390/30/1 391/31/1 392/32/1
f 393/29/1 394/30/1 395/31/1 396/32/1
f 397/41/1 398/42/1 399/43/1 400/44/1
f 401/49/1 402/50/1 403/51/1 404/52/1
f 405/49/1 406/50/1 407/51/1 408/52/1
f 409/29/1 410/30/1 411/31/1 412/32/1
f 413/29/1 414/30/1 415/31/1 416/32/1
f 417/29/1 418/30/1 419/31/1 420/32/1
f 421/29/1 422/30/1 423/31/1 424/32/1
f 425/29/1 426/30/1 427/31/1 428/32/1
f 429/29/1 430/30/1 431/31/1 432/32/1
f 433/29/1 434/30/1 435/31/1 436/32/1
f 437/29/1 438/30/1 439/31/1 440/32/1
f 441/29/1 442/30/1 443/31/1 444/32/1
f 445/29/1 446/30/1 447/31/1 448/32/1
f 449/29/1 450/30/1 451/31/1 452/32/1
f 453/29/1 454/30/1 455/31/1 456/32/1
f 457/29/1 458/30/1 459/31/1 460/32/1
f 461/41/1 462/42/1 463/43/1 464/44/1
f 465/49/1 466/50/1 467/51/1 468/52/1
f 469/45/1 470/46/1 471/47/1 472/48/1
f 473/49/1 474/50/1 475/51/1 476/52/1
f 477/49/1 478/50/1 479/51/1 480/52/1
f 481/49/1 482/50/1 483/51/1 484/52/1
f 485/49/1 486/50/1 487/51/1 488/52/1
f 489/49/1 490/50/1 491/51/1 492/52/1
f 493/49/1 494/50/1 495/51/1 496/52/1
f 497/49/1 498/50/1 499/51/1 500/52/1
f 501/53/1 502/54/1 503/55/1 504/56/1
f 505/57/1 506/58/1 507/59/1 508/60/1
f 509/61/1 510/62/1 511/63/1 512/64/1
f 513/61/1 514/62/1 515/63/1 516/64/1
f 517/61/1 518/62/1 519/63/1 520/64/1
f 521/61/1 522/62/1 523/63/1 524/64/1
f 525/61/1 526/62/1 527/63/1 528/64/1
f 529/61/1 530/62/1 531/63/1 532/64/1
f 533/61/1 534/62/1 535/63/1 536/64/1
f 537/61/1 538/62/1 539/63/1 540/64/1
f 541/61/1 542/62/1 543/63/1 544/64/1

