# Tiled2Unity generated file. Do not modify by hand.
# Wavefront file for 'map1_mesh_0008.obj'

# Vertices (Count = 164)
v -558 -31 0
v -589 -31 0
v -589 0 0
v -558 0 0
v -527 -31 0
v -558 -31 0
v -558 0 0
v -527 0 0
v -496 -31 0
v -527 -31 0
v -527 0 0
v -496 0 0
v -465 -31 0
v -496 -31 0
v -496 0 0
v -465 0 0
v -434 -31 0
v -465 -31 0
v -465 0 0
v -434 0 0
v -403 -31 0
v -434 -31 0
v -434 0 0
v -403 0 0
v -372 -31 0
v -403 -31 0
v -403 0 0
v -372 0 0
v -341 -31 0
v -372 -31 0
v -372 0 0
v -341 0 0
v -310 -31 0
v -341 -31 0
v -341 0 0
v -310 0 0
v -279 -31 0
v -310 -31 0
v -310 0 0
v -279 0 0
v -248 -31 0
v -279 -31 0
v -279 0 0
v -248 0 0
v -217 -31 0
v -248 -31 0
v -248 0 0
v -217 0 0
v -186 -31 0
v -217 -31 0
v -217 0 0
v -186 0 0
v -155 -31 0
v -186 -31 0
v -186 0 0
v -155 0 0
v -124 -31 0
v -155 -31 0
v -155 0 0
v -124 0 0
v -93 -31 0
v -124 -31 0
v -124 0 0
v -93 0 0
v -527 -62 0
v -558 -62 0
v -558 -31 0
v -527 -31 0
v -496 -62 0
v -527 -62 0
v -527 -31 0
v -496 -31 0
v -465 -62 0
v -496 -62 0
v -496 -31 0
v -465 -31 0
v -434 -62 0
v -465 -62 0
v -465 -31 0
v -434 -31 0
v -403 -62 0
v -434 -62 0
v -434 -31 0
v -403 -31 0
v -372 -62 0
v -403 -62 0
v -403 -31 0
v -372 -31 0
v -341 -62 0
v -372 -62 0
v -372 -31 0
v -341 -31 0
v -310 -62 0
v -341 -62 0
v -341 -31 0
v -310 -31 0
v -279 -62 0
v -310 -62 0
v -310 -31 0
v -279 -31 0
v -248 -62 0
v -279 -62 0
v -279 -31 0
v -248 -31 0
v -217 -62 0
v -248 -62 0
v -248 -31 0
v -217 -31 0
v -186 -62 0
v -217 -62 0
v -217 -31 0
v -186 -31 0
v -155 -62 0
v -186 -62 0
v -186 -31 0
v -155 -31 0
v -124 -62 0
v -155 -62 0
v -155 -31 0
v -124 -31 0
v -496 -93 0
v -527 -93 0
v -527 -62 0
v -496 -62 0
v -465 -93 0
v -496 -93 0
v -496 -62 0
v -465 -62 0
v -434 -93 0
v -465 -93 0
v -465 -62 0
v -434 -62 0
v -403 -93 0
v -434 -93 0
v -434 -62 0
v -403 -62 0
v -372 -93 0
v -403 -93 0
v -403 -62 0
v -372 -62 0
v -341 -93 0
v -372 -93 0
v -372 -62 0
v -341 -62 0
v -310 -93 0
v -341 -93 0
v -341 -62 0
v -310 -62 0
v -279 -93 0
v -310 -93 0
v -310 -62 0
v -279 -62 0
v -248 -93 0
v -279 -93 0
v -279 -62 0
v -248 -62 0
v -217 -93 0
v -248 -93 0
v -248 -62 0
v -217 -62 0
v -186 -93 0
v -217 -93 0
v -217 -62 0
v -186 -62 0

# Texture cooridinates (Count = 52)
vt 0.4233227 0.3004552
vt 0.4728434 0.3004552
vt 0.4728434 0.3474962
vt 0.4233227 0.3474962
vt 0.7923323 0.6509863
vt 0.841853 0.6509863
vt 0.841853 0.6980273
vt 0.7923323 0.6980273
vt 0.528754 0.7010622
vt 0.5782748 0.7010622
vt 0.5782748 0.7481032
vt 0.528754 0.7481032
vt 0.7396166 0.6509863
vt 0.7891374 0.6509863
vt 0.7891374 0.6980273
vt 0.7396166 0.6980273
vt 0.5814697 0.6509863
vt 0.6309904 0.6509863
vt 0.6309904 0.6980273
vt 0.5814697 0.6980273
vt 0.370607 0.7010622
vt 0.4201278 0.7010622
vt 0.4201278 0.7481032
vt 0.370607 0.7481032
vt 0.2124601 0.6009105
vt 0.2619808 0.6009105
vt 0.2619808 0.6479515
vt 0.2124601 0.6479515
vt 0.528754 0.6509863
vt 0.5782748 0.6509863
vt 0.5782748 0.6980273
vt 0.528754 0.6980273
vt 0.8977636 0.6509863
vt 0.9472843 0.6509863
vt 0.9472843 0.6980273
vt 0.8977636 0.6980273
vt 0.845048 0.6509863
vt 0.8945687 0.6509863
vt 0.8945687 0.6980273
vt 0.845048 0.6980273
vt 0.7923323 0.7010622
vt 0.841853 0.7010622
vt 0.841853 0.7481032
vt 0.7923323 0.7481032
vt 0.528754 0.3505311
vt 0.5782748 0.3505311
vt 0.5782748 0.3975721
vt 0.528754 0.3975721
vt 0.686901 0.3505311
vt 0.7364217 0.3505311
vt 0.7364217 0.3975721
vt 0.686901 0.3975721

# Normal
vn 0 0 -1

# Mesh description
g map1_mesh_0008

# Faces
f 1/1/1 2/2/1 3/3/1 4/4/1
f 5/5/1 6/6/1 7/7/1 8/8/1
f 9/9/1 10/10/1 11/11/1 12/12/1
f 13/13/1 14/14/1 15/15/1 16/16/1
f 17/13/1 18/14/1 19/15/1 20/16/1
f 21/17/1 22/18/1 23/19/1 24/20/1
f 25/17/1 26/18/1 27/19/1 28/20/1
f 29/17/1 30/18/1 31/19/1 32/20/1
f 33/17/1 34/18/1 35/19/1 36/20/1
f 37/17/1 38/18/1 39/19/1 40/20/1
f 41/17/1 42/18/1 43/19/1 44/20/1
f 45/17/1 46/18/1 47/19/1 48/20/1
f 49/17/1 50/18/1 51/19/1 52/20/1
f 53/17/1 54/18/1 55/19/1 56/20/1
f 57/17/1 58/18/1 59/19/1 60/20/1
f 61/21/1 62/22/1 63/23/1 64/24/1
f 65/1/1 66/2/1 67/3/1 68/4/1
f 69/5/1 70/6/1 71/7/1 72/8/1
f 73/13/1 74/14/1 75/15/1 76/16/1
f 77/25/1 78/26/1 79/27/1 80/28/1
f 81/13/1 82/14/1 83/15/1 84/16/1
f 85/17/1 86/18/1 87/19/1 88/20/1
f 89/17/1 90/18/1 91/19/1 92/20/1
f 93/17/1 94/18/1 95/19/1 96/20/1
f 97/17/1 98/18/1 99/19/1 100/20/1
f 101/17/1 102/18/1 103/19/1 104/20/1
f 105/29/1 106/30/1 107/31/1 108/32/1
f 109/33/1 110/34/1 111/35/1 112/36/1
f 113/29/1 114/30/1 115/31/1 116/32/1
f 117/21/1 118/22/1 119/23/1 120/24/1
f 121/1/1 122/2/1 123/3/1 124/4/1
f 125/5/1 126/6/1 127/7/1 128/8/1
f 129/37/1 130/38/1 131/39/1 132/40/1
f 133/41/1 134/42/1 135/43/1 136/44/1
f 137/33/1 138/34/1 139/35/1 140/36/1
f 141/33/1 142/34/1 143/35/1 144/36/1
f 145/33/1 146/34/1 147/35/1 148/36/1
f 149/33/1 150/34/1 151/35/1 152/36/1
f 153/37/1 154/38/1 155/39/1 156/40/1
f 157/45/1 158/46/1 159/47/1 160/48/1
f 161/49/1 162/50/1 163/51/1 164/52/1

